  0
SECTION
  2
BLOCKS
  0
ENDSEC
  0
SECTION
  2
ENTITIES
  0
LINE
  8
0
 10
194.858
 20
236.805
 11
249.852
 21
236.805
  0
LINE
  8
0
 10
249.852
 20
236.805
 11
249.852
 21
232.5
  0
LINE
  8
0
 10
249.852
 20
232.5
 11
269.181
 21
232.5
  0
LINE
  8
0
 10
269.181
 20
232.5
 11
269.181
 21
236.805
  0
LINE
  8
0
 10
269.181
 20
236.805
 11
324.175
 21
236.805
  0
LINE
  8
0
 10
324.175
 20
236.805
 11
324.175
 21
232.5
  0
LINE
  8
0
 10
324.175
 20
232.5
 11
343.503
 21
232.5
  0
LINE
  8
0
 10
343.503
 20
232.5
 11
343.503
 21
236.805
  0
LINE
  8
0
 10
343.503
 20
236.805
 11
398.497
 21
236.805
  0
LINE
  8
0
 10
398.497
 20
236.805
 11
398.497
 21
232.5
  0
LINE
  8
0
 10
398.497
 20
232.5
 11
417.825
 21
232.5
  0
LINE
  8
0
 10
417.825
 20
232.5
 11
417.825
 21
236.805
  0
LINE
  8
0
 10
417.825
 20
236.805
 11
472.819
 21
236.805
  0
LINE
  8
0
 10
472.819
 20
236.805
 11
472.819
 21
232.5
  0
LINE
  8
0
 10
472.819
 20
232.5
 11
492.148
 21
232.5
  0
LINE
  8
0
 10
492.148
 20
232.5
 11
492.148
 21
236.805
  0
LINE
  8
0
 10
492.148
 20
236.805
 11
547.142
 21
236.805
  0
LINE
  8
0
 10
547.142
 20
236.805
 11
547.142
 21
232.5
  0
LINE
  8
0
 10
547.142
 20
232.5
 11
566.5
 21
232.5
  0
LINE
  8
0
 10
566.5
 20
232.5
 11
566.5
 21
244.803
  0
LINE
  8
0
 10
566.5
 20
244.803
 11
562.295
 21
244.803
  0
LINE
  8
0
 10
562.295
 20
244.803
 11
562.295
 21
275.197
  0
LINE
  8
0
 10
562.295
 20
275.197
 11
566.5
 21
275.197
  0
LINE
  8
0
 10
566.5
 20
275.197
 11
566.5
 21
287.5
  0
LINE
  8
0
 10
566.5
 20
287.5
 11
437.567
 21
287.5
  0
LINE
  8
0
 10
437.567
 20
287.5
 11
437.567
 21
260
  0
LINE
  8
0
 10
437.567
 20
260
 11
433.367
 21
260
  0
LINE
  8
0
 10
433.367
 20
260
 11
433.367
 21
287.5
  0
LINE
  8
0
 10
433.367
 20
287.5
 11
308.633
 21
287.5
  0
LINE
  8
0
 10
308.633
 20
287.5
 11
308.633
 21
260
  0
LINE
  8
0
 10
308.633
 20
260
 11
304.433
 21
260
  0
LINE
  8
0
 10
304.433
 20
260
 11
304.433
 21
287.5
  0
LINE
  8
0
 10
304.433
 20
287.5
 11
175.5
 21
287.5
  0
LINE
  8
0
 10
175.5
 20
287.5
 11
175.5
 21
275.197
  0
LINE
  8
0
 10
175.5
 20
275.197
 11
179.805
 21
275.197
  0
LINE
  8
0
 10
179.805
 20
275.197
 11
179.805
 21
244.803
  0
LINE
  8
0
 10
179.805
 20
244.803
 11
175.5
 21
244.803
  0
LINE
  8
0
 10
175.5
 20
244.803
 11
175.5
 21
232.5
  0
LINE
  8
0
 10
175.5
 20
232.5
 11
194.858
 21
232.5
  0
LINE
  8
0
 10
194.858
 20
232.5
 11
194.858
 21
236.805
  0
LINE
  8
0
 10
194.858
 20
171.805
 11
249.852
 21
171.805
  0
LINE
  8
0
 10
249.852
 20
171.805
 11
249.852
 21
167.5
  0
LINE
  8
0
 10
249.852
 20
167.5
 11
269.181
 21
167.5
  0
LINE
  8
0
 10
269.181
 20
167.5
 11
269.181
 21
171.805
  0
LINE
  8
0
 10
269.181
 20
171.805
 11
324.175
 21
171.805
  0
LINE
  8
0
 10
324.175
 20
171.805
 11
324.175
 21
167.5
  0
LINE
  8
0
 10
324.175
 20
167.5
 11
343.503
 21
167.5
  0
LINE
  8
0
 10
343.503
 20
167.5
 11
343.503
 21
171.805
  0
LINE
  8
0
 10
343.503
 20
171.805
 11
398.497
 21
171.805
  0
LINE
  8
0
 10
398.497
 20
171.805
 11
398.497
 21
167.5
  0
LINE
  8
0
 10
398.497
 20
167.5
 11
417.825
 21
167.5
  0
LINE
  8
0
 10
417.825
 20
167.5
 11
417.825
 21
171.805
  0
LINE
  8
0
 10
417.825
 20
171.805
 11
472.819
 21
171.805
  0
LINE
  8
0
 10
472.819
 20
171.805
 11
472.819
 21
167.5
  0
LINE
  8
0
 10
472.819
 20
167.5
 11
492.148
 21
167.5
  0
LINE
  8
0
 10
492.148
 20
167.5
 11
492.148
 21
171.805
  0
LINE
  8
0
 10
492.148
 20
171.805
 11
547.142
 21
171.805
  0
LINE
  8
0
 10
547.142
 20
171.805
 11
547.142
 21
167.5
  0
LINE
  8
0
 10
547.142
 20
167.5
 11
566.5
 21
167.5
  0
LINE
  8
0
 10
566.5
 20
167.5
 11
566.5
 21
179.803
  0
LINE
  8
0
 10
566.5
 20
179.803
 11
562.295
 21
179.803
  0
LINE
  8
0
 10
562.295
 20
179.803
 11
562.295
 21
210.197
  0
LINE
  8
0
 10
562.295
 20
210.197
 11
566.5
 21
210.197
  0
LINE
  8
0
 10
566.5
 20
210.197
 11
566.5
 21
222.5
  0
LINE
  8
0
 10
566.5
 20
222.5
 11
437.567
 21
222.5
  0
LINE
  8
0
 10
437.567
 20
222.5
 11
437.567
 21
195
  0
LINE
  8
0
 10
437.567
 20
195
 11
433.367
 21
195
  0
LINE
  8
0
 10
433.367
 20
195
 11
433.367
 21
222.5
  0
LINE
  8
0
 10
433.367
 20
222.5
 11
308.633
 21
222.5
  0
LINE
  8
0
 10
308.633
 20
222.5
 11
308.633
 21
195
  0
LINE
  8
0
 10
308.633
 20
195
 11
304.433
 21
195
  0
LINE
  8
0
 10
304.433
 20
195
 11
304.433
 21
222.5
  0
LINE
  8
0
 10
304.433
 20
222.5
 11
175.5
 21
222.5
  0
LINE
  8
0
 10
175.5
 20
222.5
 11
175.5
 21
210.197
  0
LINE
  8
0
 10
175.5
 20
210.197
 11
179.805
 21
210.197
  0
LINE
  8
0
 10
179.805
 20
210.197
 11
179.805
 21
179.803
  0
LINE
  8
0
 10
179.805
 20
179.803
 11
175.5
 21
179.803
  0
LINE
  8
0
 10
175.5
 20
179.803
 11
175.5
 21
167.5
  0
LINE
  8
0
 10
175.5
 20
167.5
 11
194.858
 21
167.5
  0
LINE
  8
0
 10
194.858
 20
167.5
 11
194.858
 21
171.805
  0
LINE
  8
0
 10
-25.0457
 20
167.5
 11
-15.0755
 21
167.5
  0
LINE
  8
0
 10
-15.0755
 20
167.5
 11
-15.0755
 21
171.705
  0
LINE
  8
0
 10
-15.0755
 20
171.705
 11
-4.98514
 21
171.705
  0
LINE
  8
0
 10
-4.98514
 20
171.705
 11
-4.98514
 21
167.5
  0
LINE
  8
0
 10
-4.98514
 20
167.5
 11
-2.20499
 21
167.5
  0
LINE
  8
0
 10
-2.20499
 20
167.5
 11
-2.20499
 21
179.863
  0
LINE
  8
0
 10
-2.20499
 20
179.863
 11
2.105
 21
179.863
  0
LINE
  8
0
 10
2.105
 20
179.863
 11
2.105
 21
167.5
  0
LINE
  8
0
 10
2.105
 20
167.5
 11
4.98514
 21
167.5
  0
LINE
  8
0
 10
4.98514
 20
167.5
 11
4.98514
 21
171.705
  0
LINE
  8
0
 10
4.98514
 20
171.705
 11
15.0754
 21
171.705
  0
LINE
  8
0
 10
15.0754
 20
171.705
 11
15.0754
 21
167.5
  0
LINE
  8
0
 10
15.0754
 20
167.5
 11
25.0457
 21
167.5
  0
LINE
  8
0
 10
25.0457
 20
167.5
 11
25.0457
 21
171.705
  0
LINE
  8
0
 10
25.0457
 20
171.705
 11
35.136
 21
171.705
  0
LINE
  8
0
 10
35.136
 20
171.705
 11
35.136
 21
167.5
  0
LINE
  8
0
 10
35.136
 20
167.5
 11
45.1064
 21
167.5
  0
LINE
  8
0
 10
45.1064
 20
167.5
 11
45.1064
 21
171.705
  0
LINE
  8
0
 10
45.1064
 20
171.705
 11
55.1967
 21
171.705
  0
LINE
  8
0
 10
55.1967
 20
171.705
 11
55.1967
 21
167.5
  0
LINE
  8
0
 10
55.1967
 20
167.5
 11
65.167
 21
167.5
  0
LINE
  8
0
 10
65.167
 20
167.5
 11
65.167
 21
171.705
  0
LINE
  8
0
 10
65.167
 20
171.705
 11
75.2573
 21
171.705
  0
LINE
  8
0
 10
75.2573
 20
171.705
 11
75.2573
 21
167.5
  0
LINE
  8
0
 10
75.2573
 20
167.5
 11
79.495
 21
167.5
  0
LINE
  8
0
 10
79.495
 20
167.5
 11
79.495
 21
179.863
  0
LINE
  8
0
 10
79.495
 20
179.863
 11
83.805
 21
179.863
  0
LINE
  8
0
 10
83.805
 20
179.863
 11
83.805
 21
167.5
  0
LINE
  8
0
 10
83.805
 20
167.5
 11
85.2276
 21
167.5
  0
LINE
  8
0
 10
85.2276
 20
167.5
 11
85.2276
 21
171.705
  0
LINE
  8
0
 10
85.2276
 20
171.705
 11
95.3179
 21
171.705
  0
LINE
  8
0
 10
95.3179
 20
171.705
 11
95.3179
 21
167.5
  0
LINE
  8
0
 10
95.3179
 20
167.5
 11
105.288
 21
167.5
  0
LINE
  8
0
 10
105.288
 20
167.5
 11
105.288
 21
171.705
  0
LINE
  8
0
 10
105.288
 20
171.705
 11
115.378
 21
171.705
  0
LINE
  8
0
 10
115.378
 20
171.705
 11
115.378
 21
167.5
  0
LINE
  8
0
 10
115.378
 20
167.5
 11
125.349
 21
167.5
  0
LINE
  8
0
 10
125.349
 20
167.5
 11
125.349
 21
171.705
  0
LINE
  8
0
 10
125.349
 20
171.705
 11
135.439
 21
171.705
  0
LINE
  8
0
 10
135.439
 20
171.705
 11
135.439
 21
167.5
  0
LINE
  8
0
 10
135.439
 20
167.5
 11
145.409
 21
167.5
  0
LINE
  8
0
 10
145.409
 20
167.5
 11
145.409
 21
171.705
  0
LINE
  8
0
 10
145.409
 20
171.705
 11
155.5
 21
171.705
  0
LINE
  8
0
 10
155.5
 20
171.705
 11
155.5
 21
167.5
  0
LINE
  8
0
 10
155.5
 20
167.5
 11
165.5
 21
167.5
  0
LINE
  8
0
 10
165.5
 20
167.5
 11
165.5
 21
178.47
  0
LINE
  8
0
 10
165.5
 20
178.47
 11
161.295
 21
178.47
  0
LINE
  8
0
 10
161.295
 20
178.47
 11
161.295
 21
189.53
  0
LINE
  8
0
 10
161.295
 20
189.53
 11
165.5
 21
189.53
  0
LINE
  8
0
 10
165.5
 20
189.53
 11
165.5
 21
200.47
  0
LINE
  8
0
 10
165.5
 20
200.47
 11
161.295
 21
200.47
  0
LINE
  8
0
 10
161.295
 20
200.47
 11
161.295
 21
211.53
  0
LINE
  8
0
 10
161.295
 20
211.53
 11
165.5
 21
211.53
  0
LINE
  8
0
 10
165.5
 20
211.53
 11
165.5
 21
222.5
  0
LINE
  8
0
 10
165.5
 20
222.5
 11
83.805
 21
222.5
  0
LINE
  8
0
 10
83.805
 20
222.5
 11
83.805
 21
210.137
  0
LINE
  8
0
 10
83.805
 20
210.137
 11
79.495
 21
210.137
  0
LINE
  8
0
 10
79.495
 20
210.137
 11
79.495
 21
222.5
  0
LINE
  8
0
 10
79.495
 20
222.5
 11
2.105
 21
222.5
  0
LINE
  8
0
 10
2.105
 20
222.5
 11
2.105
 21
210.137
  0
LINE
  8
0
 10
2.105
 20
210.137
 11
-2.20499
 21
210.137
  0
LINE
  8
0
 10
-2.20499
 20
210.137
 11
-2.20499
 21
222.5
  0
LINE
  8
0
 10
-2.20499
 20
222.5
 11
-79.595
 21
222.5
  0
LINE
  8
0
 10
-79.595
 20
222.5
 11
-79.595
 21
210.137
  0
LINE
  8
0
 10
-79.595
 20
210.137
 11
-83.905
 21
210.137
  0
LINE
  8
0
 10
-83.905
 20
210.137
 11
-83.905
 21
222.5
  0
LINE
  8
0
 10
-83.905
 20
222.5
 11
-165.5
 21
222.5
  0
LINE
  8
0
 10
-165.5
 20
222.5
 11
-165.5
 21
211.53
  0
LINE
  8
0
 10
-165.5
 20
211.53
 11
-161.295
 21
211.53
  0
LINE
  8
0
 10
-161.295
 20
211.53
 11
-161.295
 21
200.47
  0
LINE
  8
0
 10
-161.295
 20
200.47
 11
-165.5
 21
200.47
  0
LINE
  8
0
 10
-165.5
 20
200.47
 11
-165.5
 21
189.53
  0
LINE
  8
0
 10
-165.5
 20
189.53
 11
-161.295
 21
189.53
  0
LINE
  8
0
 10
-161.295
 20
189.53
 11
-161.295
 21
178.47
  0
LINE
  8
0
 10
-161.295
 20
178.47
 11
-165.5
 21
178.47
  0
LINE
  8
0
 10
-165.5
 20
178.47
 11
-165.5
 21
167.5
  0
LINE
  8
0
 10
-165.5
 20
167.5
 11
-155.5
 21
167.5
  0
LINE
  8
0
 10
-155.5
 20
167.5
 11
-155.5
 21
171.705
  0
LINE
  8
0
 10
-155.5
 20
171.705
 11
-145.409
 21
171.705
  0
LINE
  8
0
 10
-145.409
 20
171.705
 11
-145.409
 21
167.5
  0
LINE
  8
0
 10
-145.409
 20
167.5
 11
-135.439
 21
167.5
  0
LINE
  8
0
 10
-135.439
 20
167.5
 11
-135.439
 21
171.705
  0
LINE
  8
0
 10
-135.439
 20
171.705
 11
-125.349
 21
171.705
  0
LINE
  8
0
 10
-125.349
 20
171.705
 11
-125.349
 21
167.5
  0
LINE
  8
0
 10
-125.349
 20
167.5
 11
-115.378
 21
167.5
  0
LINE
  8
0
 10
-115.378
 20
167.5
 11
-115.378
 21
171.705
  0
LINE
  8
0
 10
-115.378
 20
171.705
 11
-105.288
 21
171.705
  0
LINE
  8
0
 10
-105.288
 20
171.705
 11
-105.288
 21
167.5
  0
LINE
  8
0
 10
-105.288
 20
167.5
 11
-95.3179
 21
167.5
  0
LINE
  8
0
 10
-95.3179
 20
167.5
 11
-95.3179
 21
171.705
  0
LINE
  8
0
 10
-95.3179
 20
171.705
 11
-85.2276
 21
171.705
  0
LINE
  8
0
 10
-85.2276
 20
171.705
 11
-85.2276
 21
167.5
  0
LINE
  8
0
 10
-85.2276
 20
167.5
 11
-83.905
 21
167.5
  0
LINE
  8
0
 10
-83.905
 20
167.5
 11
-83.905
 21
179.863
  0
LINE
  8
0
 10
-83.905
 20
179.863
 11
-79.595
 21
179.863
  0
LINE
  8
0
 10
-79.595
 20
179.863
 11
-79.595
 21
167.5
  0
LINE
  8
0
 10
-79.595
 20
167.5
 11
-75.2573
 21
167.5
  0
LINE
  8
0
 10
-75.2573
 20
167.5
 11
-75.2573
 21
171.705
  0
LINE
  8
0
 10
-75.2573
 20
171.705
 11
-65.167
 21
171.705
  0
LINE
  8
0
 10
-65.167
 20
171.705
 11
-65.167
 21
167.5
  0
LINE
  8
0
 10
-65.167
 20
167.5
 11
-55.1967
 21
167.5
  0
LINE
  8
0
 10
-55.1967
 20
167.5
 11
-55.1967
 21
171.705
  0
LINE
  8
0
 10
-55.1967
 20
171.705
 11
-45.1064
 21
171.705
  0
LINE
  8
0
 10
-45.1064
 20
171.705
 11
-45.1064
 21
167.5
  0
LINE
  8
0
 10
-45.1064
 20
167.5
 11
-35.1361
 21
167.5
  0
LINE
  8
0
 10
-35.1361
 20
167.5
 11
-35.1361
 21
171.705
  0
LINE
  8
0
 10
-35.1361
 20
171.705
 11
-25.0457
 21
171.705
  0
LINE
  8
0
 10
-25.0457
 20
171.705
 11
-25.0457
 21
167.5
  0
LINE
  8
0
 10
194.858
 20
106.805
 11
249.852
 21
106.805
  0
LINE
  8
0
 10
249.852
 20
106.805
 11
249.852
 21
102.5
  0
LINE
  8
0
 10
249.852
 20
102.5
 11
269.181
 21
102.5
  0
LINE
  8
0
 10
269.181
 20
102.5
 11
269.181
 21
106.805
  0
LINE
  8
0
 10
269.181
 20
106.805
 11
324.175
 21
106.805
  0
LINE
  8
0
 10
324.175
 20
106.805
 11
324.175
 21
102.5
  0
LINE
  8
0
 10
324.175
 20
102.5
 11
343.503
 21
102.5
  0
LINE
  8
0
 10
343.503
 20
102.5
 11
343.503
 21
106.805
  0
LINE
  8
0
 10
343.503
 20
106.805
 11
398.497
 21
106.805
  0
LINE
  8
0
 10
398.497
 20
106.805
 11
398.497
 21
102.5
  0
LINE
  8
0
 10
398.497
 20
102.5
 11
417.825
 21
102.5
  0
LINE
  8
0
 10
417.825
 20
102.5
 11
417.825
 21
106.805
  0
LINE
  8
0
 10
417.825
 20
106.805
 11
472.819
 21
106.805
  0
LINE
  8
0
 10
472.819
 20
106.805
 11
472.819
 21
102.5
  0
LINE
  8
0
 10
472.819
 20
102.5
 11
492.148
 21
102.5
  0
LINE
  8
0
 10
492.148
 20
102.5
 11
492.148
 21
106.805
  0
LINE
  8
0
 10
492.148
 20
106.805
 11
547.142
 21
106.805
  0
LINE
  8
0
 10
547.142
 20
106.805
 11
547.142
 21
102.5
  0
LINE
  8
0
 10
547.142
 20
102.5
 11
566.5
 21
102.5
  0
LINE
  8
0
 10
566.5
 20
102.5
 11
566.5
 21
114.803
  0
LINE
  8
0
 10
566.5
 20
114.803
 11
562.295
 21
114.803
  0
LINE
  8
0
 10
562.295
 20
114.803
 11
562.295
 21
145.197
  0
LINE
  8
0
 10
562.295
 20
145.197
 11
566.5
 21
145.197
  0
LINE
  8
0
 10
566.5
 20
145.197
 11
566.5
 21
157.5
  0
LINE
  8
0
 10
566.5
 20
157.5
 11
437.567
 21
157.5
  0
LINE
  8
0
 10
437.567
 20
157.5
 11
437.567
 21
130
  0
LINE
  8
0
 10
437.567
 20
130
 11
433.367
 21
130
  0
LINE
  8
0
 10
433.367
 20
130
 11
433.367
 21
157.5
  0
LINE
  8
0
 10
433.367
 20
157.5
 11
308.633
 21
157.5
  0
LINE
  8
0
 10
308.633
 20
157.5
 11
308.633
 21
130
  0
LINE
  8
0
 10
308.633
 20
130
 11
304.433
 21
130
  0
LINE
  8
0
 10
304.433
 20
130
 11
304.433
 21
157.5
  0
LINE
  8
0
 10
304.433
 20
157.5
 11
175.5
 21
157.5
  0
LINE
  8
0
 10
175.5
 20
157.5
 11
175.5
 21
145.197
  0
LINE
  8
0
 10
175.5
 20
145.197
 11
179.805
 21
145.197
  0
LINE
  8
0
 10
179.805
 20
145.197
 11
179.805
 21
114.803
  0
LINE
  8
0
 10
179.805
 20
114.803
 11
175.5
 21
114.803
  0
LINE
  8
0
 10
175.5
 20
114.803
 11
175.5
 21
102.5
  0
LINE
  8
0
 10
175.5
 20
102.5
 11
194.858
 21
102.5
  0
LINE
  8
0
 10
194.858
 20
102.5
 11
194.858
 21
106.805
  0
LINE
  8
0
 10
-86.1994
 20
102.5
 11
-86.1994
 21
106.805
  0
LINE
  8
0
 10
-86.1994
 20
106.805
 11
-83.8
 21
106.805
  0
LINE
  8
0
 10
-83.8
 20
106.805
 11
-83.8
 21
130
  0
LINE
  8
0
 10
-83.8
 20
130
 11
-79.6
 21
130
  0
LINE
  8
0
 10
-79.6
 20
130
 11
-79.6
 21
106.805
  0
LINE
  8
0
 10
-79.6
 20
106.805
 11
-39.6353
 21
106.805
  0
LINE
  8
0
 10
-39.6353
 20
106.805
 11
-39.6353
 21
102.5
  0
LINE
  8
0
 10
-39.6353
 20
102.5
 11
-23.2821
 21
102.5
  0
LINE
  8
0
 10
-23.2821
 20
102.5
 11
-23.2821
 21
106.805
  0
LINE
  8
0
 10
-23.2821
 20
106.805
 11
-2.09999
 21
106.805
  0
LINE
  8
0
 10
-2.09999
 20
106.805
 11
-2.09999
 21
130
  0
LINE
  8
0
 10
-2.09999
 20
130
 11
2.09999
 21
130
  0
LINE
  8
0
 10
2.09999
 20
130
 11
2.09999
 21
106.805
  0
LINE
  8
0
 10
2.09999
 20
106.805
 11
23.2821
 21
106.805
  0
LINE
  8
0
 10
23.2821
 20
106.805
 11
23.2821
 21
102.5
  0
LINE
  8
0
 10
23.2821
 20
102.5
 11
39.6353
 21
102.5
  0
LINE
  8
0
 10
39.6353
 20
102.5
 11
39.6353
 21
106.805
  0
LINE
  8
0
 10
39.6353
 20
106.805
 11
79.6
 21
106.805
  0
LINE
  8
0
 10
79.6
 20
106.805
 11
79.6
 21
130
  0
LINE
  8
0
 10
79.6
 20
130
 11
83.8
 21
130
  0
LINE
  8
0
 10
83.8
 20
130
 11
83.8
 21
106.805
  0
LINE
  8
0
 10
83.8
 20
106.805
 11
86.1994
 21
106.805
  0
LINE
  8
0
 10
86.1994
 20
106.805
 11
86.1994
 21
102.5
  0
LINE
  8
0
 10
86.1994
 20
102.5
 11
102.553
 21
102.5
  0
LINE
  8
0
 10
102.553
 20
102.5
 11
102.553
 21
106.805
  0
LINE
  8
0
 10
102.553
 20
106.805
 11
149.117
 21
106.805
  0
LINE
  8
0
 10
149.117
 20
106.805
 11
149.117
 21
102.5
  0
LINE
  8
0
 10
149.117
 20
102.5
 11
165.5
 21
102.5
  0
LINE
  8
0
 10
165.5
 20
102.5
 11
165.5
 21
114.803
  0
LINE
  8
0
 10
165.5
 20
114.803
 11
161.195
 21
114.803
  0
LINE
  8
0
 10
161.195
 20
114.803
 11
161.195
 21
145.197
  0
LINE
  8
0
 10
161.195
 20
145.197
 11
165.5
 21
145.197
  0
LINE
  8
0
 10
165.5
 20
145.197
 11
165.5
 21
157.5
  0
LINE
  8
0
 10
165.5
 20
157.5
 11
-165.5
 21
157.5
  0
LINE
  8
0
 10
-165.5
 20
157.5
 11
-165.5
 21
145.197
  0
LINE
  8
0
 10
-165.5
 20
145.197
 11
-161.295
 21
145.197
  0
LINE
  8
0
 10
-161.295
 20
145.197
 11
-161.295
 21
114.803
  0
LINE
  8
0
 10
-161.295
 20
114.803
 11
-165.5
 21
114.803
  0
LINE
  8
0
 10
-165.5
 20
114.803
 11
-165.5
 21
102.5
  0
LINE
  8
0
 10
-165.5
 20
102.5
 11
-149.117
 21
102.5
  0
LINE
  8
0
 10
-149.117
 20
102.5
 11
-149.117
 21
106.805
  0
LINE
  8
0
 10
-149.117
 20
106.805
 11
-102.553
 21
106.805
  0
LINE
  8
0
 10
-102.553
 20
106.805
 11
-102.553
 21
102.5
  0
LINE
  8
0
 10
-102.553
 20
102.5
 11
-86.1994
 21
102.5
  0
LINE
  8
0
 10
185.496
 20
41.705
 11
195.581
 21
41.705
  0
LINE
  8
0
 10
195.581
 20
41.705
 11
195.581
 21
37.5
  0
LINE
  8
0
 10
195.581
 20
37.5
 11
205.547
 21
37.5
  0
LINE
  8
0
 10
205.547
 20
37.5
 11
205.547
 21
41.705
  0
LINE
  8
0
 10
205.547
 20
41.705
 11
215.633
 21
41.705
  0
LINE
  8
0
 10
215.633
 20
41.705
 11
215.633
 21
37.5
  0
LINE
  8
0
 10
215.633
 20
37.5
 11
225.598
 21
37.5
  0
LINE
  8
0
 10
225.598
 20
37.5
 11
225.598
 21
41.705
  0
LINE
  8
0
 10
225.598
 20
41.705
 11
235.684
 21
41.705
  0
LINE
  8
0
 10
235.684
 20
41.705
 11
235.684
 21
37.5
  0
LINE
  8
0
 10
235.684
 20
37.5
 11
245.649
 21
37.5
  0
LINE
  8
0
 10
245.649
 20
37.5
 11
245.649
 21
41.705
  0
LINE
  8
0
 10
245.649
 20
41.705
 11
255.735
 21
41.705
  0
LINE
  8
0
 10
255.735
 20
41.705
 11
255.735
 21
37.5
  0
LINE
  8
0
 10
255.735
 20
37.5
 11
265.701
 21
37.5
  0
LINE
  8
0
 10
265.701
 20
37.5
 11
265.701
 21
41.705
  0
LINE
  8
0
 10
265.701
 20
41.705
 11
275.786
 21
41.705
  0
LINE
  8
0
 10
275.786
 20
41.705
 11
275.786
 21
37.5
  0
LINE
  8
0
 10
275.786
 20
37.5
 11
285.752
 21
37.5
  0
LINE
  8
0
 10
285.752
 20
37.5
 11
285.752
 21
41.705
  0
LINE
  8
0
 10
285.752
 20
41.705
 11
295.838
 21
41.705
  0
LINE
  8
0
 10
295.838
 20
41.705
 11
295.838
 21
37.5
  0
LINE
  8
0
 10
295.838
 20
37.5
 11
304.428
 21
37.5
  0
LINE
  8
0
 10
304.428
 20
37.5
 11
304.428
 21
49.8633
  0
LINE
  8
0
 10
304.428
 20
49.8633
 11
308.738
 21
49.8633
  0
LINE
  8
0
 10
308.738
 20
49.8633
 11
308.738
 21
41.705
  0
LINE
  8
0
 10
308.738
 20
41.705
 11
315.889
 21
41.705
  0
LINE
  8
0
 10
315.889
 20
41.705
 11
315.889
 21
37.5
  0
LINE
  8
0
 10
315.889
 20
37.5
 11
325.855
 21
37.5
  0
LINE
  8
0
 10
325.855
 20
37.5
 11
325.855
 21
41.705
  0
LINE
  8
0
 10
325.855
 20
41.705
 11
335.94
 21
41.705
  0
LINE
  8
0
 10
335.94
 20
41.705
 11
335.94
 21
37.5
  0
LINE
  8
0
 10
335.94
 20
37.5
 11
345.906
 21
37.5
  0
LINE
  8
0
 10
345.906
 20
37.5
 11
345.906
 21
41.705
  0
LINE
  8
0
 10
345.906
 20
41.705
 11
355.992
 21
41.705
  0
LINE
  8
0
 10
355.992
 20
41.705
 11
355.992
 21
37.5
  0
LINE
  8
0
 10
355.992
 20
37.5
 11
365.957
 21
37.5
  0
LINE
  8
0
 10
365.957
 20
37.5
 11
365.957
 21
41.705
  0
LINE
  8
0
 10
365.957
 20
41.705
 11
376.043
 21
41.705
  0
LINE
  8
0
 10
376.043
 20
41.705
 11
376.043
 21
37.5
  0
LINE
  8
0
 10
376.043
 20
37.5
 11
386.008
 21
37.5
  0
LINE
  8
0
 10
386.008
 20
37.5
 11
386.008
 21
41.705
  0
LINE
  8
0
 10
386.008
 20
41.705
 11
396.094
 21
41.705
  0
LINE
  8
0
 10
396.094
 20
41.705
 11
396.094
 21
37.5
  0
LINE
  8
0
 10
396.094
 20
37.5
 11
406.06
 21
37.5
  0
LINE
  8
0
 10
406.06
 20
37.5
 11
406.06
 21
41.705
  0
LINE
  8
0
 10
406.06
 20
41.705
 11
416.145
 21
41.705
  0
LINE
  8
0
 10
416.145
 20
41.705
 11
416.145
 21
37.5
  0
LINE
  8
0
 10
416.145
 20
37.5
 11
426.111
 21
37.5
  0
LINE
  8
0
 10
426.111
 20
37.5
 11
426.111
 21
41.705
  0
LINE
  8
0
 10
426.111
 20
41.705
 11
433.362
 21
41.705
  0
LINE
  8
0
 10
433.362
 20
41.705
 11
433.362
 21
49.8633
  0
LINE
  8
0
 10
433.362
 20
49.8633
 11
437.672
 21
49.8633
  0
LINE
  8
0
 10
437.672
 20
49.8633
 11
437.672
 21
37.5
  0
LINE
  8
0
 10
437.672
 20
37.5
 11
446.162
 21
37.5
  0
LINE
  8
0
 10
446.162
 20
37.5
 11
446.162
 21
41.705
  0
LINE
  8
0
 10
446.162
 20
41.705
 11
456.248
 21
41.705
  0
LINE
  8
0
 10
456.248
 20
41.705
 11
456.248
 21
37.5
  0
LINE
  8
0
 10
456.248
 20
37.5
 11
466.214
 21
37.5
  0
LINE
  8
0
 10
466.214
 20
37.5
 11
466.214
 21
41.705
  0
LINE
  8
0
 10
466.214
 20
41.705
 11
476.299
 21
41.705
  0
LINE
  8
0
 10
476.299
 20
41.705
 11
476.299
 21
37.5
  0
LINE
  8
0
 10
476.299
 20
37.5
 11
486.265
 21
37.5
  0
LINE
  8
0
 10
486.265
 20
37.5
 11
486.265
 21
41.705
  0
LINE
  8
0
 10
486.265
 20
41.705
 11
496.351
 21
41.705
  0
LINE
  8
0
 10
496.351
 20
41.705
 11
496.351
 21
37.5
  0
LINE
  8
0
 10
496.351
 20
37.5
 11
506.316
 21
37.5
  0
LINE
  8
0
 10
506.316
 20
37.5
 11
506.316
 21
41.705
  0
LINE
  8
0
 10
506.316
 20
41.705
 11
516.402
 21
41.705
  0
LINE
  8
0
 10
516.402
 20
41.705
 11
516.402
 21
37.5
  0
LINE
  8
0
 10
516.402
 20
37.5
 11
526.367
 21
37.5
  0
LINE
  8
0
 10
526.367
 20
37.5
 11
526.367
 21
41.705
  0
LINE
  8
0
 10
526.367
 20
41.705
 11
536.453
 21
41.705
  0
LINE
  8
0
 10
536.453
 20
41.705
 11
536.453
 21
37.5
  0
LINE
  8
0
 10
536.453
 20
37.5
 11
546.419
 21
37.5
  0
LINE
  8
0
 10
546.419
 20
37.5
 11
546.419
 21
41.705
  0
LINE
  8
0
 10
546.419
 20
41.705
 11
556.504
 21
41.705
  0
LINE
  8
0
 10
556.504
 20
41.705
 11
556.504
 21
37.5
  0
LINE
  8
0
 10
556.504
 20
37.5
 11
562.295
 21
37.5
  0
LINE
  8
0
 10
562.295
 20
37.5
 11
562.295
 21
48.53
  0
LINE
  8
0
 10
562.295
 20
48.53
 11
566.5
 21
48.53
  0
LINE
  8
0
 10
566.5
 20
48.53
 11
566.5
 21
59.47
  0
LINE
  8
0
 10
566.5
 20
59.47
 11
562.295
 21
59.47
  0
LINE
  8
0
 10
562.295
 20
59.47
 11
562.295
 21
70.53
  0
LINE
  8
0
 10
562.295
 20
70.53
 11
566.5
 21
70.53
  0
LINE
  8
0
 10
566.5
 20
70.53
 11
566.5
 21
81.47
  0
LINE
  8
0
 10
566.5
 20
81.47
 11
562.295
 21
81.47
  0
LINE
  8
0
 10
562.295
 20
81.47
 11
562.295
 21
92.5
  0
LINE
  8
0
 10
562.295
 20
92.5
 11
437.672
 21
92.5
  0
LINE
  8
0
 10
437.672
 20
92.5
 11
437.672
 21
80.1367
  0
LINE
  8
0
 10
437.672
 20
80.1367
 11
433.362
 21
80.1367
  0
LINE
  8
0
 10
433.362
 20
80.1367
 11
433.362
 21
92.5
  0
LINE
  8
0
 10
433.362
 20
92.5
 11
308.738
 21
92.5
  0
LINE
  8
0
 10
308.738
 20
92.5
 11
308.738
 21
80.1367
  0
LINE
  8
0
 10
308.738
 20
80.1367
 11
304.428
 21
80.1367
  0
LINE
  8
0
 10
304.428
 20
80.1367
 11
304.428
 21
92.5
  0
LINE
  8
0
 10
304.428
 20
92.5
 11
179.705
 21
92.5
  0
LINE
  8
0
 10
179.705
 20
92.5
 11
179.705
 21
81.47
  0
LINE
  8
0
 10
179.705
 20
81.47
 11
175.5
 21
81.47
  0
LINE
  8
0
 10
175.5
 20
81.47
 11
175.5
 21
70.53
  0
LINE
  8
0
 10
175.5
 20
70.53
 11
179.705
 21
70.53
  0
LINE
  8
0
 10
179.705
 20
70.53
 11
179.705
 21
59.47
  0
LINE
  8
0
 10
179.705
 20
59.47
 11
175.5
 21
59.47
  0
LINE
  8
0
 10
175.5
 20
59.47
 11
175.5
 21
48.53
  0
LINE
  8
0
 10
175.5
 20
48.53
 11
179.705
 21
48.53
  0
LINE
  8
0
 10
179.705
 20
48.53
 11
179.705
 21
37.5
  0
LINE
  8
0
 10
179.705
 20
37.5
 11
185.496
 21
37.5
  0
LINE
  8
0
 10
185.496
 20
37.5
 11
185.496
 21
41.705
  0
LINE
  8
0
 10
-149.117
 20
41.805
 11
-102.553
 21
41.805
  0
LINE
  8
0
 10
-102.553
 20
41.805
 11
-102.553
 21
37.5
  0
LINE
  8
0
 10
-102.553
 20
37.5
 11
-86.1994
 21
37.5
  0
LINE
  8
0
 10
-86.1994
 20
37.5
 11
-86.1994
 21
41.805
  0
LINE
  8
0
 10
-86.1994
 20
41.805
 11
-83.8
 21
41.805
  0
LINE
  8
0
 10
-83.8
 20
41.805
 11
-83.8
 21
65
  0
LINE
  8
0
 10
-83.8
 20
65
 11
-79.6
 21
65
  0
LINE
  8
0
 10
-79.6
 20
65
 11
-79.6
 21
41.805
  0
LINE
  8
0
 10
-79.6
 20
41.805
 11
-39.6353
 21
41.805
  0
LINE
  8
0
 10
-39.6353
 20
41.805
 11
-39.6353
 21
37.5
  0
LINE
  8
0
 10
-39.6353
 20
37.5
 11
-23.2821
 21
37.5
  0
LINE
  8
0
 10
-23.2821
 20
37.5
 11
-23.2821
 21
41.805
  0
LINE
  8
0
 10
-23.2821
 20
41.805
 11
-2.09999
 21
41.805
  0
LINE
  8
0
 10
-2.09999
 20
41.805
 11
-2.09999
 21
65
  0
LINE
  8
0
 10
-2.09999
 20
65
 11
2.09999
 21
65
  0
LINE
  8
0
 10
2.09999
 20
65
 11
2.09999
 21
41.805
  0
LINE
  8
0
 10
2.09999
 20
41.805
 11
23.2821
 21
41.805
  0
LINE
  8
0
 10
23.2821
 20
41.805
 11
23.2821
 21
37.5
  0
LINE
  8
0
 10
23.2821
 20
37.5
 11
39.6353
 21
37.5
  0
LINE
  8
0
 10
39.6353
 20
37.5
 11
39.6353
 21
41.805
  0
LINE
  8
0
 10
39.6353
 20
41.805
 11
79.6
 21
41.805
  0
LINE
  8
0
 10
79.6
 20
41.805
 11
79.6
 21
65
  0
LINE
  8
0
 10
79.6
 20
65
 11
83.8
 21
65
  0
LINE
  8
0
 10
83.8
 20
65
 11
83.8
 21
41.805
  0
LINE
  8
0
 10
83.8
 20
41.805
 11
86.1994
 21
41.805
  0
LINE
  8
0
 10
86.1994
 20
41.805
 11
86.1994
 21
37.5
  0
LINE
  8
0
 10
86.1994
 20
37.5
 11
102.553
 21
37.5
  0
LINE
  8
0
 10
102.553
 20
37.5
 11
102.553
 21
41.805
  0
LINE
  8
0
 10
102.553
 20
41.805
 11
149.117
 21
41.805
  0
LINE
  8
0
 10
149.117
 20
41.805
 11
149.117
 21
37.5
  0
LINE
  8
0
 10
149.117
 20
37.5
 11
165.5
 21
37.5
  0
LINE
  8
0
 10
165.5
 20
37.5
 11
165.5
 21
49.8033
  0
LINE
  8
0
 10
165.5
 20
49.8033
 11
161.195
 21
49.8033
  0
LINE
  8
0
 10
161.195
 20
49.8033
 11
161.195
 21
80.1967
  0
LINE
  8
0
 10
161.195
 20
80.1967
 11
165.5
 21
80.1967
  0
LINE
  8
0
 10
165.5
 20
80.1967
 11
165.5
 21
92.5
  0
LINE
  8
0
 10
165.5
 20
92.5
 11
-165.5
 21
92.5
  0
LINE
  8
0
 10
-165.5
 20
92.5
 11
-165.5
 21
80.1967
  0
LINE
  8
0
 10
-165.5
 20
80.1967
 11
-161.295
 21
80.1967
  0
LINE
  8
0
 10
-161.295
 20
80.1967
 11
-161.295
 21
49.8033
  0
LINE
  8
0
 10
-161.295
 20
49.8033
 11
-165.5
 21
49.8033
  0
LINE
  8
0
 10
-165.5
 20
49.8033
 11
-165.5
 21
37.5
  0
LINE
  8
0
 10
-165.5
 20
37.5
 11
-149.117
 21
37.5
  0
LINE
  8
0
 10
-149.117
 20
37.5
 11
-149.117
 21
41.805
  0
LINE
  8
0
 10
185.496
 20
-23.295
 11
195.581
 21
-23.295
  0
LINE
  8
0
 10
195.581
 20
-23.295
 11
195.581
 21
-27.5
  0
LINE
  8
0
 10
195.581
 20
-27.5
 11
205.547
 21
-27.5
  0
LINE
  8
0
 10
205.547
 20
-27.5
 11
205.547
 21
-23.295
  0
LINE
  8
0
 10
205.547
 20
-23.295
 11
215.633
 21
-23.295
  0
LINE
  8
0
 10
215.633
 20
-23.295
 11
215.633
 21
-27.5
  0
LINE
  8
0
 10
215.633
 20
-27.5
 11
225.598
 21
-27.5
  0
LINE
  8
0
 10
225.598
 20
-27.5
 11
225.598
 21
-23.295
  0
LINE
  8
0
 10
225.598
 20
-23.295
 11
235.684
 21
-23.295
  0
LINE
  8
0
 10
235.684
 20
-23.295
 11
235.684
 21
-27.5
  0
LINE
  8
0
 10
235.684
 20
-27.5
 11
245.649
 21
-27.5
  0
LINE
  8
0
 10
245.649
 20
-27.5
 11
245.649
 21
-23.295
  0
LINE
  8
0
 10
245.649
 20
-23.295
 11
255.735
 21
-23.295
  0
LINE
  8
0
 10
255.735
 20
-23.295
 11
255.735
 21
-27.5
  0
LINE
  8
0
 10
255.735
 20
-27.5
 11
265.701
 21
-27.5
  0
LINE
  8
0
 10
265.701
 20
-27.5
 11
265.701
 21
-23.295
  0
LINE
  8
0
 10
265.701
 20
-23.295
 11
275.786
 21
-23.295
  0
LINE
  8
0
 10
275.786
 20
-23.295
 11
275.786
 21
-27.5
  0
LINE
  8
0
 10
275.786
 20
-27.5
 11
285.752
 21
-27.5
  0
LINE
  8
0
 10
285.752
 20
-27.5
 11
285.752
 21
-23.295
  0
LINE
  8
0
 10
285.752
 20
-23.295
 11
295.838
 21
-23.295
  0
LINE
  8
0
 10
295.838
 20
-23.295
 11
295.838
 21
-27.5
  0
LINE
  8
0
 10
295.838
 20
-27.5
 11
304.428
 21
-27.5
  0
LINE
  8
0
 10
304.428
 20
-27.5
 11
304.428
 21
-15.1367
  0
LINE
  8
0
 10
304.428
 20
-15.1367
 11
308.738
 21
-15.1367
  0
LINE
  8
0
 10
308.738
 20
-15.1367
 11
308.738
 21
-23.295
  0
LINE
  8
0
 10
308.738
 20
-23.295
 11
315.889
 21
-23.295
  0
LINE
  8
0
 10
315.889
 20
-23.295
 11
315.889
 21
-27.5
  0
LINE
  8
0
 10
315.889
 20
-27.5
 11
325.855
 21
-27.5
  0
LINE
  8
0
 10
325.855
 20
-27.5
 11
325.855
 21
-23.295
  0
LINE
  8
0
 10
325.855
 20
-23.295
 11
335.94
 21
-23.295
  0
LINE
  8
0
 10
335.94
 20
-23.295
 11
335.94
 21
-27.5
  0
LINE
  8
0
 10
335.94
 20
-27.5
 11
345.906
 21
-27.5
  0
LINE
  8
0
 10
345.906
 20
-27.5
 11
345.906
 21
-23.295
  0
LINE
  8
0
 10
345.906
 20
-23.295
 11
355.992
 21
-23.295
  0
LINE
  8
0
 10
355.992
 20
-23.295
 11
355.992
 21
-27.5
  0
LINE
  8
0
 10
355.992
 20
-27.5
 11
365.957
 21
-27.5
  0
LINE
  8
0
 10
365.957
 20
-27.5
 11
365.957
 21
-23.295
  0
LINE
  8
0
 10
365.957
 20
-23.295
 11
376.043
 21
-23.295
  0
LINE
  8
0
 10
376.043
 20
-23.295
 11
376.043
 21
-27.5
  0
LINE
  8
0
 10
376.043
 20
-27.5
 11
386.008
 21
-27.5
  0
LINE
  8
0
 10
386.008
 20
-27.5
 11
386.008
 21
-23.295
  0
LINE
  8
0
 10
386.008
 20
-23.295
 11
396.094
 21
-23.295
  0
LINE
  8
0
 10
396.094
 20
-23.295
 11
396.094
 21
-27.5
  0
LINE
  8
0
 10
396.094
 20
-27.5
 11
406.06
 21
-27.5
  0
LINE
  8
0
 10
406.06
 20
-27.5
 11
406.06
 21
-23.295
  0
LINE
  8
0
 10
406.06
 20
-23.295
 11
416.145
 21
-23.295
  0
LINE
  8
0
 10
416.145
 20
-23.295
 11
416.145
 21
-27.5
  0
LINE
  8
0
 10
416.145
 20
-27.5
 11
426.111
 21
-27.5
  0
LINE
  8
0
 10
426.111
 20
-27.5
 11
426.111
 21
-23.295
  0
LINE
  8
0
 10
426.111
 20
-23.295
 11
433.362
 21
-23.295
  0
LINE
  8
0
 10
433.362
 20
-23.295
 11
433.362
 21
-15.1367
  0
LINE
  8
0
 10
433.362
 20
-15.1367
 11
437.672
 21
-15.1367
  0
LINE
  8
0
 10
437.672
 20
-15.1367
 11
437.672
 21
-27.5
  0
LINE
  8
0
 10
437.672
 20
-27.5
 11
446.162
 21
-27.5
  0
LINE
  8
0
 10
446.162
 20
-27.5
 11
446.162
 21
-23.295
  0
LINE
  8
0
 10
446.162
 20
-23.295
 11
456.248
 21
-23.295
  0
LINE
  8
0
 10
456.248
 20
-23.295
 11
456.248
 21
-27.5
  0
LINE
  8
0
 10
456.248
 20
-27.5
 11
466.214
 21
-27.5
  0
LINE
  8
0
 10
466.214
 20
-27.5
 11
466.214
 21
-23.295
  0
LINE
  8
0
 10
466.214
 20
-23.295
 11
476.299
 21
-23.295
  0
LINE
  8
0
 10
476.299
 20
-23.295
 11
476.299
 21
-27.5
  0
LINE
  8
0
 10
476.299
 20
-27.5
 11
486.265
 21
-27.5
  0
LINE
  8
0
 10
486.265
 20
-27.5
 11
486.265
 21
-23.295
  0
LINE
  8
0
 10
486.265
 20
-23.295
 11
496.351
 21
-23.295
  0
LINE
  8
0
 10
496.351
 20
-23.295
 11
496.351
 21
-27.5
  0
LINE
  8
0
 10
496.351
 20
-27.5
 11
506.316
 21
-27.5
  0
LINE
  8
0
 10
506.316
 20
-27.5
 11
506.316
 21
-23.295
  0
LINE
  8
0
 10
506.316
 20
-23.295
 11
516.402
 21
-23.295
  0
LINE
  8
0
 10
516.402
 20
-23.295
 11
516.402
 21
-27.5
  0
LINE
  8
0
 10
516.402
 20
-27.5
 11
526.367
 21
-27.5
  0
LINE
  8
0
 10
526.367
 20
-27.5
 11
526.367
 21
-23.295
  0
LINE
  8
0
 10
526.367
 20
-23.295
 11
536.453
 21
-23.295
  0
LINE
  8
0
 10
536.453
 20
-23.295
 11
536.453
 21
-27.5
  0
LINE
  8
0
 10
536.453
 20
-27.5
 11
546.419
 21
-27.5
  0
LINE
  8
0
 10
546.419
 20
-27.5
 11
546.419
 21
-23.295
  0
LINE
  8
0
 10
546.419
 20
-23.295
 11
556.504
 21
-23.295
  0
LINE
  8
0
 10
556.504
 20
-23.295
 11
556.504
 21
-27.5
  0
LINE
  8
0
 10
556.504
 20
-27.5
 11
562.295
 21
-27.5
  0
LINE
  8
0
 10
562.295
 20
-27.5
 11
562.295
 21
-16.47
  0
LINE
  8
0
 10
562.295
 20
-16.47
 11
566.5
 21
-16.47
  0
LINE
  8
0
 10
566.5
 20
-16.47
 11
566.5
 21
-5.53
  0
LINE
  8
0
 10
566.5
 20
-5.53
 11
562.295
 21
-5.53
  0
LINE
  8
0
 10
562.295
 20
-5.53
 11
562.295
 21
5.53
  0
LINE
  8
0
 10
562.295
 20
5.53
 11
566.5
 21
5.53
  0
LINE
  8
0
 10
566.5
 20
5.53
 11
566.5
 21
16.47
  0
LINE
  8
0
 10
566.5
 20
16.47
 11
562.295
 21
16.47
  0
LINE
  8
0
 10
562.295
 20
16.47
 11
562.295
 21
27.5
  0
LINE
  8
0
 10
562.295
 20
27.5
 11
437.672
 21
27.5
  0
LINE
  8
0
 10
437.672
 20
27.5
 11
437.672
 21
15.1367
  0
LINE
  8
0
 10
437.672
 20
15.1367
 11
433.362
 21
15.1367
  0
LINE
  8
0
 10
433.362
 20
15.1367
 11
433.362
 21
27.5
  0
LINE
  8
0
 10
433.362
 20
27.5
 11
308.738
 21
27.5
  0
LINE
  8
0
 10
308.738
 20
27.5
 11
308.738
 21
15.1367
  0
LINE
  8
0
 10
308.738
 20
15.1367
 11
304.428
 21
15.1367
  0
LINE
  8
0
 10
304.428
 20
15.1367
 11
304.428
 21
27.5
  0
LINE
  8
0
 10
304.428
 20
27.5
 11
179.705
 21
27.5
  0
LINE
  8
0
 10
179.705
 20
27.5
 11
179.705
 21
16.47
  0
LINE
  8
0
 10
179.705
 20
16.47
 11
175.5
 21
16.47
  0
LINE
  8
0
 10
175.5
 20
16.47
 11
175.5
 21
5.53
  0
LINE
  8
0
 10
175.5
 20
5.53
 11
179.705
 21
5.53
  0
LINE
  8
0
 10
179.705
 20
5.53
 11
179.705
 21
-5.53
  0
LINE
  8
0
 10
179.705
 20
-5.53
 11
175.5
 21
-5.53
  0
LINE
  8
0
 10
175.5
 20
-5.53
 11
175.5
 21
-16.47
  0
LINE
  8
0
 10
175.5
 20
-16.47
 11
179.705
 21
-16.47
  0
LINE
  8
0
 10
179.705
 20
-16.47
 11
179.705
 21
-27.5
  0
LINE
  8
0
 10
179.705
 20
-27.5
 11
185.496
 21
-27.5
  0
LINE
  8
0
 10
185.496
 20
-27.5
 11
185.496
 21
-23.295
  0
LINE
  8
0
 10
-155.5
 20
-23.295
 11
-145.409
 21
-23.295
  0
LINE
  8
0
 10
-145.409
 20
-23.295
 11
-145.409
 21
-27.5
  0
LINE
  8
0
 10
-145.409
 20
-27.5
 11
-135.439
 21
-27.5
  0
LINE
  8
0
 10
-135.439
 20
-27.5
 11
-135.439
 21
-23.295
  0
LINE
  8
0
 10
-135.439
 20
-23.295
 11
-125.349
 21
-23.295
  0
LINE
  8
0
 10
-125.349
 20
-23.295
 11
-125.349
 21
-27.5
  0
LINE
  8
0
 10
-125.349
 20
-27.5
 11
-115.378
 21
-27.5
  0
LINE
  8
0
 10
-115.378
 20
-27.5
 11
-115.378
 21
-23.295
  0
LINE
  8
0
 10
-115.378
 20
-23.295
 11
-105.288
 21
-23.295
  0
LINE
  8
0
 10
-105.288
 20
-23.295
 11
-105.288
 21
-27.5
  0
LINE
  8
0
 10
-105.288
 20
-27.5
 11
-95.3179
 21
-27.5
  0
LINE
  8
0
 10
-95.3179
 20
-27.5
 11
-95.3179
 21
-23.295
  0
LINE
  8
0
 10
-95.3179
 20
-23.295
 11
-85.2276
 21
-23.295
  0
LINE
  8
0
 10
-85.2276
 20
-23.295
 11
-85.2276
 21
-27.5
  0
LINE
  8
0
 10
-85.2276
 20
-27.5
 11
-83.905
 21
-27.5
  0
LINE
  8
0
 10
-83.905
 20
-27.5
 11
-83.905
 21
-15.1367
  0
LINE
  8
0
 10
-83.905
 20
-15.1367
 11
-79.595
 21
-15.1367
  0
LINE
  8
0
 10
-79.595
 20
-15.1367
 11
-79.595
 21
-27.5
  0
LINE
  8
0
 10
-79.595
 20
-27.5
 11
-75.2573
 21
-27.5
  0
LINE
  8
0
 10
-75.2573
 20
-27.5
 11
-75.2573
 21
-23.295
  0
LINE
  8
0
 10
-75.2573
 20
-23.295
 11
-65.167
 21
-23.295
  0
LINE
  8
0
 10
-65.167
 20
-23.295
 11
-65.167
 21
-27.5
  0
LINE
  8
0
 10
-65.167
 20
-27.5
 11
-55.1967
 21
-27.5
  0
LINE
  8
0
 10
-55.1967
 20
-27.5
 11
-55.1967
 21
-23.295
  0
LINE
  8
0
 10
-55.1967
 20
-23.295
 11
-45.1064
 21
-23.295
  0
LINE
  8
0
 10
-45.1064
 20
-23.295
 11
-45.1064
 21
-27.5
  0
LINE
  8
0
 10
-45.1064
 20
-27.5
 11
-35.1361
 21
-27.5
  0
LINE
  8
0
 10
-35.1361
 20
-27.5
 11
-35.1361
 21
-23.295
  0
LINE
  8
0
 10
-35.1361
 20
-23.295
 11
-25.0457
 21
-23.295
  0
LINE
  8
0
 10
-25.0457
 20
-23.295
 11
-25.0457
 21
-27.5
  0
LINE
  8
0
 10
-25.0457
 20
-27.5
 11
-15.0755
 21
-27.5
  0
LINE
  8
0
 10
-15.0755
 20
-27.5
 11
-15.0755
 21
-23.295
  0
LINE
  8
0
 10
-15.0755
 20
-23.295
 11
-4.98514
 21
-23.295
  0
LINE
  8
0
 10
-4.98514
 20
-23.295
 11
-4.98514
 21
-27.5
  0
LINE
  8
0
 10
-4.98514
 20
-27.5
 11
-2.20499
 21
-27.5
  0
LINE
  8
0
 10
-2.20499
 20
-27.5
 11
-2.20499
 21
-15.1367
  0
LINE
  8
0
 10
-2.20499
 20
-15.1367
 11
2.105
 21
-15.1367
  0
LINE
  8
0
 10
2.105
 20
-15.1367
 11
2.105
 21
-27.5
  0
LINE
  8
0
 10
2.105
 20
-27.5
 11
4.98514
 21
-27.5
  0
LINE
  8
0
 10
4.98514
 20
-27.5
 11
4.98514
 21
-23.295
  0
LINE
  8
0
 10
4.98514
 20
-23.295
 11
15.0754
 21
-23.295
  0
LINE
  8
0
 10
15.0754
 20
-23.295
 11
15.0754
 21
-27.5
  0
LINE
  8
0
 10
15.0754
 20
-27.5
 11
25.0457
 21
-27.5
  0
LINE
  8
0
 10
25.0457
 20
-27.5
 11
25.0457
 21
-23.295
  0
LINE
  8
0
 10
25.0457
 20
-23.295
 11
35.136
 21
-23.295
  0
LINE
  8
0
 10
35.136
 20
-23.295
 11
35.136
 21
-27.5
  0
LINE
  8
0
 10
35.136
 20
-27.5
 11
45.1064
 21
-27.5
  0
LINE
  8
0
 10
45.1064
 20
-27.5
 11
45.1064
 21
-23.295
  0
LINE
  8
0
 10
45.1064
 20
-23.295
 11
55.1967
 21
-23.295
  0
LINE
  8
0
 10
55.1967
 20
-23.295
 11
55.1967
 21
-27.5
  0
LINE
  8
0
 10
55.1967
 20
-27.5
 11
65.167
 21
-27.5
  0
LINE
  8
0
 10
65.167
 20
-27.5
 11
65.167
 21
-23.295
  0
LINE
  8
0
 10
65.167
 20
-23.295
 11
75.2573
 21
-23.295
  0
LINE
  8
0
 10
75.2573
 20
-23.295
 11
75.2573
 21
-27.5
  0
LINE
  8
0
 10
75.2573
 20
-27.5
 11
79.495
 21
-27.5
  0
LINE
  8
0
 10
79.495
 20
-27.5
 11
79.495
 21
-15.1367
  0
LINE
  8
0
 10
79.495
 20
-15.1367
 11
83.805
 21
-15.1367
  0
LINE
  8
0
 10
83.805
 20
-15.1367
 11
83.805
 21
-27.5
  0
LINE
  8
0
 10
83.805
 20
-27.5
 11
85.2276
 21
-27.5
  0
LINE
  8
0
 10
85.2276
 20
-27.5
 11
85.2276
 21
-23.295
  0
LINE
  8
0
 10
85.2276
 20
-23.295
 11
95.3179
 21
-23.295
  0
LINE
  8
0
 10
95.3179
 20
-23.295
 11
95.3179
 21
-27.5
  0
LINE
  8
0
 10
95.3179
 20
-27.5
 11
105.288
 21
-27.5
  0
LINE
  8
0
 10
105.288
 20
-27.5
 11
105.288
 21
-23.295
  0
LINE
  8
0
 10
105.288
 20
-23.295
 11
115.378
 21
-23.295
  0
LINE
  8
0
 10
115.378
 20
-23.295
 11
115.378
 21
-27.5
  0
LINE
  8
0
 10
115.378
 20
-27.5
 11
125.349
 21
-27.5
  0
LINE
  8
0
 10
125.349
 20
-27.5
 11
125.349
 21
-23.295
  0
LINE
  8
0
 10
125.349
 20
-23.295
 11
135.439
 21
-23.295
  0
LINE
  8
0
 10
135.439
 20
-23.295
 11
135.439
 21
-27.5
  0
LINE
  8
0
 10
135.439
 20
-27.5
 11
145.409
 21
-27.5
  0
LINE
  8
0
 10
145.409
 20
-27.5
 11
145.409
 21
-23.295
  0
LINE
  8
0
 10
145.409
 20
-23.295
 11
155.5
 21
-23.295
  0
LINE
  8
0
 10
155.5
 20
-23.295
 11
155.5
 21
-27.5
  0
LINE
  8
0
 10
155.5
 20
-27.5
 11
165.5
 21
-27.5
  0
LINE
  8
0
 10
165.5
 20
-27.5
 11
165.5
 21
-16.53
  0
LINE
  8
0
 10
165.5
 20
-16.53
 11
161.295
 21
-16.53
  0
LINE
  8
0
 10
161.295
 20
-16.53
 11
161.295
 21
-5.46999
  0
LINE
  8
0
 10
161.295
 20
-5.46999
 11
165.5
 21
-5.46999
  0
LINE
  8
0
 10
165.5
 20
-5.46999
 11
165.5
 21
5.46999
  0
LINE
  8
0
 10
165.5
 20
5.46999
 11
161.295
 21
5.46999
  0
LINE
  8
0
 10
161.295
 20
5.46999
 11
161.295
 21
16.53
  0
LINE
  8
0
 10
161.295
 20
16.53
 11
165.5
 21
16.53
  0
LINE
  8
0
 10
165.5
 20
16.53
 11
165.5
 21
27.5
  0
LINE
  8
0
 10
165.5
 20
27.5
 11
83.805
 21
27.5
  0
LINE
  8
0
 10
83.805
 20
27.5
 11
83.805
 21
15.1367
  0
LINE
  8
0
 10
83.805
 20
15.1367
 11
79.495
 21
15.1367
  0
LINE
  8
0
 10
79.495
 20
15.1367
 11
79.495
 21
27.5
  0
LINE
  8
0
 10
79.495
 20
27.5
 11
2.105
 21
27.5
  0
LINE
  8
0
 10
2.105
 20
27.5
 11
2.105
 21
15.1367
  0
LINE
  8
0
 10
2.105
 20
15.1367
 11
-2.20499
 21
15.1367
  0
LINE
  8
0
 10
-2.20499
 20
15.1367
 11
-2.20499
 21
27.5
  0
LINE
  8
0
 10
-2.20499
 20
27.5
 11
-79.595
 21
27.5
  0
LINE
  8
0
 10
-79.595
 20
27.5
 11
-79.595
 21
15.1367
  0
LINE
  8
0
 10
-79.595
 20
15.1367
 11
-83.905
 21
15.1367
  0
LINE
  8
0
 10
-83.905
 20
15.1367
 11
-83.905
 21
27.5
  0
LINE
  8
0
 10
-83.905
 20
27.5
 11
-165.5
 21
27.5
  0
LINE
  8
0
 10
-165.5
 20
27.5
 11
-165.5
 21
16.53
  0
LINE
  8
0
 10
-165.5
 20
16.53
 11
-161.295
 21
16.53
  0
LINE
  8
0
 10
-161.295
 20
16.53
 11
-161.295
 21
5.46999
  0
LINE
  8
0
 10
-161.295
 20
5.46999
 11
-165.5
 21
5.46999
  0
LINE
  8
0
 10
-165.5
 20
5.46999
 11
-165.5
 21
-5.46999
  0
LINE
  8
0
 10
-165.5
 20
-5.46999
 11
-161.295
 21
-5.46999
  0
LINE
  8
0
 10
-161.295
 20
-5.46999
 11
-161.295
 21
-16.53
  0
LINE
  8
0
 10
-161.295
 20
-16.53
 11
-165.5
 21
-16.53
  0
LINE
  8
0
 10
-165.5
 20
-16.53
 11
-165.5
 21
-27.5
  0
LINE
  8
0
 10
-165.5
 20
-27.5
 11
-155.5
 21
-27.5
  0
LINE
  8
0
 10
-155.5
 20
-27.5
 11
-155.5
 21
-23.295
  0
LINE
  8
0
 10
-35.076
 20
-456
 11
-25.1058
 21
-456
  0
LINE
  8
0
 10
-25.1058
 20
-456
 11
-25.1058
 21
-451.795
  0
LINE
  8
0
 10
-25.1058
 20
-451.795
 11
-15.0154
 21
-451.795
  0
LINE
  8
0
 10
-15.0154
 20
-451.795
 11
-15.0154
 21
-456
  0
LINE
  8
0
 10
-15.0154
 20
-456
 11
-5.04515
 21
-456
  0
LINE
  8
0
 10
-5.04515
 20
-456
 11
-5.04515
 21
-451.795
  0
LINE
  8
0
 10
-5.04515
 20
-451.795
 11
-2.09999
 21
-451.795
  0
LINE
  8
0
 10
-2.09999
 20
-451.795
 11
-2.09999
 21
-436.582
  0
LINE
  8
0
 10
-2.09999
 20
-436.582
 11
2.20999
 21
-436.582
  0
LINE
  8
0
 10
2.20999
 20
-436.582
 11
2.20999
 21
-451.795
  0
LINE
  8
0
 10
2.20999
 20
-451.795
 11
5.04515
 21
-451.795
  0
LINE
  8
0
 10
5.04515
 20
-451.795
 11
5.04515
 21
-456
  0
LINE
  8
0
 10
5.04515
 20
-456
 11
15.0154
 21
-456
  0
LINE
  8
0
 10
15.0154
 20
-456
 11
15.0154
 21
-451.795
  0
LINE
  8
0
 10
15.0154
 20
-451.795
 11
25.1057
 21
-451.795
  0
LINE
  8
0
 10
25.1057
 20
-451.795
 11
25.1057
 21
-456
  0
LINE
  8
0
 10
25.1057
 20
-456
 11
35.076
 21
-456
  0
LINE
  8
0
 10
35.076
 20
-456
 11
35.076
 21
-451.795
  0
LINE
  8
0
 10
35.076
 20
-451.795
 11
45.1664
 21
-451.795
  0
LINE
  8
0
 10
45.1664
 20
-451.795
 11
45.1664
 21
-456
  0
LINE
  8
0
 10
45.1664
 20
-456
 11
55.1367
 21
-456
  0
LINE
  8
0
 10
55.1367
 20
-456
 11
55.1367
 21
-451.795
  0
LINE
  8
0
 10
55.1367
 20
-451.795
 11
65.227
 21
-451.795
  0
LINE
  8
0
 10
65.227
 20
-451.795
 11
65.227
 21
-456
  0
LINE
  8
0
 10
65.227
 20
-456
 11
75.1973
 21
-456
  0
LINE
  8
0
 10
75.1973
 20
-456
 11
75.1973
 21
-451.795
  0
LINE
  8
0
 10
75.1973
 20
-451.795
 11
79.6
 21
-451.795
  0
LINE
  8
0
 10
79.6
 20
-451.795
 11
79.6
 21
-436.582
  0
LINE
  8
0
 10
79.6
 20
-436.582
 11
83.91
 21
-436.582
  0
LINE
  8
0
 10
83.91
 20
-436.582
 11
83.91
 21
-451.795
  0
LINE
  8
0
 10
83.91
 20
-451.795
 11
85.2876
 21
-451.795
  0
LINE
  8
0
 10
85.2876
 20
-451.795
 11
85.2876
 21
-456
  0
LINE
  8
0
 10
85.2876
 20
-456
 11
95.2579
 21
-456
  0
LINE
  8
0
 10
95.2579
 20
-456
 11
95.2579
 21
-451.795
  0
LINE
  8
0
 10
95.2579
 20
-451.795
 11
105.348
 21
-451.795
  0
LINE
  8
0
 10
105.348
 20
-451.795
 11
105.348
 21
-456
  0
LINE
  8
0
 10
105.348
 20
-456
 11
115.318
 21
-456
  0
LINE
  8
0
 10
115.318
 20
-456
 11
115.318
 21
-451.795
  0
LINE
  8
0
 10
115.318
 20
-451.795
 11
125.409
 21
-451.795
  0
LINE
  8
0
 10
125.409
 20
-451.795
 11
125.409
 21
-456
  0
LINE
  8
0
 10
125.409
 20
-456
 11
135.379
 21
-456
  0
LINE
  8
0
 10
135.379
 20
-456
 11
135.379
 21
-451.795
  0
LINE
  8
0
 10
135.379
 20
-451.795
 11
145.469
 21
-451.795
  0
LINE
  8
0
 10
145.469
 20
-451.795
 11
145.469
 21
-456
  0
LINE
  8
0
 10
145.469
 20
-456
 11
155.44
 21
-456
  0
LINE
  8
0
 10
155.44
 20
-456
 11
155.44
 21
-451.795
  0
LINE
  8
0
 10
155.44
 20
-451.795
 11
161.295
 21
-451.795
  0
LINE
  8
0
 10
161.295
 20
-451.795
 11
161.295
 21
-445.944
  0
LINE
  8
0
 10
161.295
 20
-445.944
 11
165.5
 21
-445.944
  0
LINE
  8
0
 10
165.5
 20
-445.944
 11
165.5
 21
-435.979
  0
LINE
  8
0
 10
165.5
 20
-435.979
 11
161.295
 21
-435.979
  0
LINE
  8
0
 10
161.295
 20
-435.979
 11
161.295
 21
-425.893
  0
LINE
  8
0
 10
161.295
 20
-425.893
 11
165.5
 21
-425.893
  0
LINE
  8
0
 10
165.5
 20
-425.893
 11
165.5
 21
-415.927
  0
LINE
  8
0
 10
165.5
 20
-415.927
 11
161.295
 21
-415.927
  0
LINE
  8
0
 10
161.295
 20
-415.927
 11
161.295
 21
-405.842
  0
LINE
  8
0
 10
161.295
 20
-405.842
 11
165.5
 21
-405.842
  0
LINE
  8
0
 10
165.5
 20
-405.842
 11
165.5
 21
-395.876
  0
LINE
  8
0
 10
165.5
 20
-395.876
 11
161.295
 21
-395.876
  0
LINE
  8
0
 10
161.295
 20
-395.876
 11
161.295
 21
-385.791
  0
LINE
  8
0
 10
161.295
 20
-385.791
 11
165.5
 21
-385.791
  0
LINE
  8
0
 10
165.5
 20
-385.791
 11
165.5
 21
-375.825
  0
LINE
  8
0
 10
165.5
 20
-375.825
 11
161.295
 21
-375.825
  0
LINE
  8
0
 10
161.295
 20
-375.825
 11
161.295
 21
-365.739
  0
LINE
  8
0
 10
161.295
 20
-365.739
 11
165.5
 21
-365.739
  0
LINE
  8
0
 10
165.5
 20
-365.739
 11
165.5
 21
-355.774
  0
LINE
  8
0
 10
165.5
 20
-355.774
 11
161.295
 21
-355.774
  0
LINE
  8
0
 10
161.295
 20
-355.774
 11
161.295
 21
-345.688
  0
LINE
  8
0
 10
161.295
 20
-345.688
 11
165.5
 21
-345.688
  0
LINE
  8
0
 10
165.5
 20
-345.688
 11
165.5
 21
-335.722
  0
LINE
  8
0
 10
165.5
 20
-335.722
 11
161.295
 21
-335.722
  0
LINE
  8
0
 10
161.295
 20
-335.722
 11
161.295
 21
-327.177
  0
LINE
  8
0
 10
161.295
 20
-327.177
 11
151.536
 21
-327.177
  0
LINE
  8
0
 10
151.536
 20
-327.177
 11
151.536
 21
-322.867
  0
LINE
  8
0
 10
151.536
 20
-322.867
 11
165.5
 21
-322.867
  0
LINE
  8
0
 10
165.5
 20
-322.867
 11
165.5
 21
-315.671
  0
LINE
  8
0
 10
165.5
 20
-315.671
 11
161.295
 21
-315.671
  0
LINE
  8
0
 10
161.295
 20
-315.671
 11
161.295
 21
-305.585
  0
LINE
  8
0
 10
161.295
 20
-305.585
 11
165.5
 21
-305.585
  0
LINE
  8
0
 10
165.5
 20
-305.585
 11
165.5
 21
-295.62
  0
LINE
  8
0
 10
165.5
 20
-295.62
 11
161.295
 21
-295.62
  0
LINE
  8
0
 10
161.295
 20
-295.62
 11
161.295
 21
-285.534
  0
LINE
  8
0
 10
161.295
 20
-285.534
 11
165.5
 21
-285.534
  0
LINE
  8
0
 10
165.5
 20
-285.534
 11
165.5
 21
-275.568
  0
LINE
  8
0
 10
165.5
 20
-275.568
 11
161.295
 21
-275.568
  0
LINE
  8
0
 10
161.295
 20
-275.568
 11
161.295
 21
-265.483
  0
LINE
  8
0
 10
161.295
 20
-265.483
 11
165.5
 21
-265.483
  0
LINE
  8
0
 10
165.5
 20
-265.483
 11
165.5
 21
-255.517
  0
LINE
  8
0
 10
165.5
 20
-255.517
 11
161.295
 21
-255.517
  0
LINE
  8
0
 10
161.295
 20
-255.517
 11
161.295
 21
-245.432
  0
LINE
  8
0
 10
161.295
 20
-245.432
 11
165.5
 21
-245.432
  0
LINE
  8
0
 10
165.5
 20
-245.432
 11
165.5
 21
-235.466
  0
LINE
  8
0
 10
165.5
 20
-235.466
 11
161.295
 21
-235.466
  0
LINE
  8
0
 10
161.295
 20
-235.466
 11
161.295
 21
-225.38
  0
LINE
  8
0
 10
161.295
 20
-225.38
 11
165.5
 21
-225.38
  0
LINE
  8
0
 10
165.5
 20
-225.38
 11
165.5
 21
-215.415
  0
LINE
  8
0
 10
165.5
 20
-215.415
 11
161.295
 21
-215.415
  0
LINE
  8
0
 10
161.295
 20
-215.415
 11
161.295
 21
-205.329
  0
LINE
  8
0
 10
161.295
 20
-205.329
 11
165.5
 21
-205.329
  0
LINE
  8
0
 10
165.5
 20
-205.329
 11
165.5
 21
-198.243
  0
LINE
  8
0
 10
165.5
 20
-198.243
 11
151.536
 21
-198.243
  0
LINE
  8
0
 10
151.536
 20
-198.243
 11
151.536
 21
-193.933
  0
LINE
  8
0
 10
151.536
 20
-193.933
 11
161.295
 21
-193.933
  0
LINE
  8
0
 10
161.295
 20
-193.933
 11
161.295
 21
-185.278
  0
LINE
  8
0
 10
161.295
 20
-185.278
 11
165.5
 21
-185.278
  0
LINE
  8
0
 10
165.5
 20
-185.278
 11
165.5
 21
-175.312
  0
LINE
  8
0
 10
165.5
 20
-175.312
 11
161.295
 21
-175.312
  0
LINE
  8
0
 10
161.295
 20
-175.312
 11
161.295
 21
-165.226
  0
LINE
  8
0
 10
161.295
 20
-165.226
 11
165.5
 21
-165.226
  0
LINE
  8
0
 10
165.5
 20
-165.226
 11
165.5
 21
-155.261
  0
LINE
  8
0
 10
165.5
 20
-155.261
 11
161.295
 21
-155.261
  0
LINE
  8
0
 10
161.295
 20
-155.261
 11
161.295
 21
-145.175
  0
LINE
  8
0
 10
161.295
 20
-145.175
 11
165.5
 21
-145.175
  0
LINE
  8
0
 10
165.5
 20
-145.175
 11
165.5
 21
-135.209
  0
LINE
  8
0
 10
165.5
 20
-135.209
 11
161.295
 21
-135.209
  0
LINE
  8
0
 10
161.295
 20
-135.209
 11
161.295
 21
-125.124
  0
LINE
  8
0
 10
161.295
 20
-125.124
 11
165.5
 21
-125.124
  0
LINE
  8
0
 10
165.5
 20
-125.124
 11
165.5
 21
-115.158
  0
LINE
  8
0
 10
165.5
 20
-115.158
 11
161.295
 21
-115.158
  0
LINE
  8
0
 10
161.295
 20
-115.158
 11
161.295
 21
-105.073
  0
LINE
  8
0
 10
161.295
 20
-105.073
 11
165.5
 21
-105.073
  0
LINE
  8
0
 10
165.5
 20
-105.073
 11
165.5
 21
-95.1069
  0
LINE
  8
0
 10
165.5
 20
-95.1069
 11
161.295
 21
-95.1069
  0
LINE
  8
0
 10
161.295
 20
-95.1069
 11
161.295
 21
-85.0213
  0
LINE
  8
0
 10
161.295
 20
-85.0213
 11
165.5
 21
-85.0213
  0
LINE
  8
0
 10
165.5
 20
-85.0213
 11
165.5
 21
-75.0556
  0
LINE
  8
0
 10
165.5
 20
-75.0556
 11
161.295
 21
-75.0556
  0
LINE
  8
0
 10
161.295
 20
-75.0556
 11
161.295
 21
-69.205
  0
LINE
  8
0
 10
161.295
 20
-69.205
 11
155.44
 21
-69.205
  0
LINE
  8
0
 10
155.44
 20
-69.205
 11
155.44
 21
-65
  0
LINE
  8
0
 10
155.44
 20
-65
 11
145.469
 21
-65
  0
LINE
  8
0
 10
145.469
 20
-65
 11
145.469
 21
-69.205
  0
LINE
  8
0
 10
145.469
 20
-69.205
 11
135.379
 21
-69.205
  0
LINE
  8
0
 10
135.379
 20
-69.205
 11
135.379
 21
-65
  0
LINE
  8
0
 10
135.379
 20
-65
 11
125.409
 21
-65
  0
LINE
  8
0
 10
125.409
 20
-65
 11
125.409
 21
-69.205
  0
LINE
  8
0
 10
125.409
 20
-69.205
 11
115.318
 21
-69.205
  0
LINE
  8
0
 10
115.318
 20
-69.205
 11
115.318
 21
-65
  0
LINE
  8
0
 10
115.318
 20
-65
 11
105.348
 21
-65
  0
LINE
  8
0
 10
105.348
 20
-65
 11
105.348
 21
-69.205
  0
LINE
  8
0
 10
105.348
 20
-69.205
 11
95.2579
 21
-69.205
  0
LINE
  8
0
 10
95.2579
 20
-69.205
 11
95.2579
 21
-65
  0
LINE
  8
0
 10
95.2579
 20
-65
 11
85.2876
 21
-65
  0
LINE
  8
0
 10
85.2876
 20
-65
 11
85.2876
 21
-69.205
  0
LINE
  8
0
 10
85.2876
 20
-69.205
 11
83.91
 21
-69.205
  0
LINE
  8
0
 10
83.91
 20
-69.205
 11
83.91
 21
-84.4184
  0
LINE
  8
0
 10
83.91
 20
-84.4184
 11
79.6
 21
-84.4184
  0
LINE
  8
0
 10
79.6
 20
-84.4184
 11
79.6
 21
-69.205
  0
LINE
  8
0
 10
79.6
 20
-69.205
 11
75.1973
 21
-69.205
  0
LINE
  8
0
 10
75.1973
 20
-69.205
 11
75.1973
 21
-65
  0
LINE
  8
0
 10
75.1973
 20
-65
 11
65.227
 21
-65
  0
LINE
  8
0
 10
65.227
 20
-65
 11
65.227
 21
-69.205
  0
LINE
  8
0
 10
65.227
 20
-69.205
 11
55.1367
 21
-69.205
  0
LINE
  8
0
 10
55.1367
 20
-69.205
 11
55.1367
 21
-65
  0
LINE
  8
0
 10
55.1367
 20
-65
 11
45.1664
 21
-65
  0
LINE
  8
0
 10
45.1664
 20
-65
 11
45.1664
 21
-69.205
  0
LINE
  8
0
 10
45.1664
 20
-69.205
 11
35.076
 21
-69.205
  0
LINE
  8
0
 10
35.076
 20
-69.205
 11
35.076
 21
-65
  0
LINE
  8
0
 10
35.076
 20
-65
 11
25.1057
 21
-65
  0
LINE
  8
0
 10
25.1057
 20
-65
 11
25.1057
 21
-69.205
  0
LINE
  8
0
 10
25.1057
 20
-69.205
 11
15.0154
 21
-69.205
  0
LINE
  8
0
 10
15.0154
 20
-69.205
 11
15.0154
 21
-65
  0
LINE
  8
0
 10
15.0154
 20
-65
 11
5.04515
 21
-65
  0
LINE
  8
0
 10
5.04515
 20
-65
 11
5.04515
 21
-69.205
  0
LINE
  8
0
 10
5.04515
 20
-69.205
 11
2.20999
 21
-69.205
  0
LINE
  8
0
 10
2.20999
 20
-69.205
 11
2.20999
 21
-84.4184
  0
LINE
  8
0
 10
2.20999
 20
-84.4184
 11
-2.09999
 21
-84.4184
  0
LINE
  8
0
 10
-2.09999
 20
-84.4184
 11
-2.09999
 21
-69.205
  0
LINE
  8
0
 10
-2.09999
 20
-69.205
 11
-5.04515
 21
-69.205
  0
LINE
  8
0
 10
-5.04515
 20
-69.205
 11
-5.04515
 21
-65
  0
LINE
  8
0
 10
-5.04515
 20
-65
 11
-15.0154
 21
-65
  0
LINE
  8
0
 10
-15.0154
 20
-65
 11
-15.0154
 21
-69.205
  0
LINE
  8
0
 10
-15.0154
 20
-69.205
 11
-25.1057
 21
-69.205
  0
LINE
  8
0
 10
-25.1057
 20
-69.205
 11
-25.1057
 21
-65
  0
LINE
  8
0
 10
-25.1057
 20
-65
 11
-35.076
 21
-65
  0
LINE
  8
0
 10
-35.076
 20
-65
 11
-35.076
 21
-69.205
  0
LINE
  8
0
 10
-35.076
 20
-69.205
 11
-45.1664
 21
-69.205
  0
LINE
  8
0
 10
-45.1664
 20
-69.205
 11
-45.1664
 21
-65
  0
LINE
  8
0
 10
-45.1664
 20
-65
 11
-55.1367
 21
-65
  0
LINE
  8
0
 10
-55.1367
 20
-65
 11
-55.1367
 21
-69.205
  0
LINE
  8
0
 10
-55.1367
 20
-69.205
 11
-65.227
 21
-69.205
  0
LINE
  8
0
 10
-65.227
 20
-69.205
 11
-65.227
 21
-65
  0
LINE
  8
0
 10
-65.227
 20
-65
 11
-75.1973
 21
-65
  0
LINE
  8
0
 10
-75.1973
 20
-65
 11
-75.1973
 21
-69.205
  0
LINE
  8
0
 10
-75.1973
 20
-69.205
 11
-79.49
 21
-69.205
  0
LINE
  8
0
 10
-79.49
 20
-69.205
 11
-79.49
 21
-84.4184
  0
LINE
  8
0
 10
-79.49
 20
-84.4184
 11
-83.8
 21
-84.4184
  0
LINE
  8
0
 10
-83.8
 20
-84.4184
 11
-83.8
 21
-69.205
  0
LINE
  8
0
 10
-83.8
 20
-69.205
 11
-85.2876
 21
-69.205
  0
LINE
  8
0
 10
-85.2876
 20
-69.205
 11
-85.2876
 21
-65
  0
LINE
  8
0
 10
-85.2876
 20
-65
 11
-95.2579
 21
-65
  0
LINE
  8
0
 10
-95.2579
 20
-65
 11
-95.2579
 21
-69.205
  0
LINE
  8
0
 10
-95.2579
 20
-69.205
 11
-105.348
 21
-69.205
  0
LINE
  8
0
 10
-105.348
 20
-69.205
 11
-105.348
 21
-65
  0
LINE
  8
0
 10
-105.348
 20
-65
 11
-115.318
 21
-65
  0
LINE
  8
0
 10
-115.318
 20
-65
 11
-115.318
 21
-69.205
  0
LINE
  8
0
 10
-115.318
 20
-69.205
 11
-125.409
 21
-69.205
  0
LINE
  8
0
 10
-125.409
 20
-69.205
 11
-125.409
 21
-65
  0
LINE
  8
0
 10
-125.409
 20
-65
 11
-135.379
 21
-65
  0
LINE
  8
0
 10
-135.379
 20
-65
 11
-135.379
 21
-69.205
  0
LINE
  8
0
 10
-135.379
 20
-69.205
 11
-145.469
 21
-69.205
  0
LINE
  8
0
 10
-145.469
 20
-69.205
 11
-145.469
 21
-65
  0
LINE
  8
0
 10
-145.469
 20
-65
 11
-155.44
 21
-65
  0
LINE
  8
0
 10
-155.44
 20
-65
 11
-155.44
 21
-69.205
  0
LINE
  8
0
 10
-155.44
 20
-69.205
 11
-161.295
 21
-69.205
  0
LINE
  8
0
 10
-161.295
 20
-69.205
 11
-161.295
 21
-75.0556
  0
LINE
  8
0
 10
-161.295
 20
-75.0556
 11
-165.5
 21
-75.0556
  0
LINE
  8
0
 10
-165.5
 20
-75.0556
 11
-165.5
 21
-85.0213
  0
LINE
  8
0
 10
-165.5
 20
-85.0213
 11
-161.295
 21
-85.0213
  0
LINE
  8
0
 10
-161.295
 20
-85.0213
 11
-161.295
 21
-95.1069
  0
LINE
  8
0
 10
-161.295
 20
-95.1069
 11
-165.5
 21
-95.1069
  0
LINE
  8
0
 10
-165.5
 20
-95.1069
 11
-165.5
 21
-105.073
  0
LINE
  8
0
 10
-165.5
 20
-105.073
 11
-161.295
 21
-105.073
  0
LINE
  8
0
 10
-161.295
 20
-105.073
 11
-161.295
 21
-115.158
  0
LINE
  8
0
 10
-161.295
 20
-115.158
 11
-165.5
 21
-115.158
  0
LINE
  8
0
 10
-165.5
 20
-115.158
 11
-165.5
 21
-125.124
  0
LINE
  8
0
 10
-165.5
 20
-125.124
 11
-161.295
 21
-125.124
  0
LINE
  8
0
 10
-161.295
 20
-125.124
 11
-161.295
 21
-135.209
  0
LINE
  8
0
 10
-161.295
 20
-135.209
 11
-165.5
 21
-135.209
  0
LINE
  8
0
 10
-165.5
 20
-135.209
 11
-165.5
 21
-145.175
  0
LINE
  8
0
 10
-165.5
 20
-145.175
 11
-161.295
 21
-145.175
  0
LINE
  8
0
 10
-161.295
 20
-145.175
 11
-161.295
 21
-155.261
  0
LINE
  8
0
 10
-161.295
 20
-155.261
 11
-165.5
 21
-155.261
  0
LINE
  8
0
 10
-165.5
 20
-155.261
 11
-165.5
 21
-165.226
  0
LINE
  8
0
 10
-165.5
 20
-165.226
 11
-161.295
 21
-165.226
  0
LINE
  8
0
 10
-161.295
 20
-165.226
 11
-161.295
 21
-175.312
  0
LINE
  8
0
 10
-161.295
 20
-175.312
 11
-165.5
 21
-175.312
  0
LINE
  8
0
 10
-165.5
 20
-175.312
 11
-165.5
 21
-185.278
  0
LINE
  8
0
 10
-165.5
 20
-185.278
 11
-161.295
 21
-185.278
  0
LINE
  8
0
 10
-161.295
 20
-185.278
 11
-161.295
 21
-193.933
  0
LINE
  8
0
 10
-161.295
 20
-193.933
 11
-151.536
 21
-193.933
  0
LINE
  8
0
 10
-151.536
 20
-193.933
 11
-151.536
 21
-198.243
  0
LINE
  8
0
 10
-151.536
 20
-198.243
 11
-165.5
 21
-198.243
  0
LINE
  8
0
 10
-165.5
 20
-198.243
 11
-165.5
 21
-205.329
  0
LINE
  8
0
 10
-165.5
 20
-205.329
 11
-161.295
 21
-205.329
  0
LINE
  8
0
 10
-161.295
 20
-205.329
 11
-161.295
 21
-215.415
  0
LINE
  8
0
 10
-161.295
 20
-215.415
 11
-165.5
 21
-215.415
  0
LINE
  8
0
 10
-165.5
 20
-215.415
 11
-165.5
 21
-225.38
  0
LINE
  8
0
 10
-165.5
 20
-225.38
 11
-161.295
 21
-225.38
  0
LINE
  8
0
 10
-161.295
 20
-225.38
 11
-161.295
 21
-235.466
  0
LINE
  8
0
 10
-161.295
 20
-235.466
 11
-165.5
 21
-235.466
  0
LINE
  8
0
 10
-165.5
 20
-235.466
 11
-165.5
 21
-245.432
  0
LINE
  8
0
 10
-165.5
 20
-245.432
 11
-161.295
 21
-245.432
  0
LINE
  8
0
 10
-161.295
 20
-245.432
 11
-161.295
 21
-255.517
  0
LINE
  8
0
 10
-161.295
 20
-255.517
 11
-165.5
 21
-255.517
  0
LINE
  8
0
 10
-165.5
 20
-255.517
 11
-165.5
 21
-265.483
  0
LINE
  8
0
 10
-165.5
 20
-265.483
 11
-161.295
 21
-265.483
  0
LINE
  8
0
 10
-161.295
 20
-265.483
 11
-161.295
 21
-275.568
  0
LINE
  8
0
 10
-161.295
 20
-275.568
 11
-165.5
 21
-275.568
  0
LINE
  8
0
 10
-165.5
 20
-275.568
 11
-165.5
 21
-285.534
  0
LINE
  8
0
 10
-165.5
 20
-285.534
 11
-161.295
 21
-285.534
  0
LINE
  8
0
 10
-161.295
 20
-285.534
 11
-161.295
 21
-295.62
  0
LINE
  8
0
 10
-161.295
 20
-295.62
 11
-165.5
 21
-295.62
  0
LINE
  8
0
 10
-165.5
 20
-295.62
 11
-165.5
 21
-305.585
  0
LINE
  8
0
 10
-165.5
 20
-305.585
 11
-161.295
 21
-305.585
  0
LINE
  8
0
 10
-161.295
 20
-305.585
 11
-161.295
 21
-315.671
  0
LINE
  8
0
 10
-161.295
 20
-315.671
 11
-165.5
 21
-315.671
  0
LINE
  8
0
 10
-165.5
 20
-315.671
 11
-165.5
 21
-322.867
  0
LINE
  8
0
 10
-165.5
 20
-322.867
 11
-151.536
 21
-322.867
  0
LINE
  8
0
 10
-151.536
 20
-322.867
 11
-151.536
 21
-327.177
  0
LINE
  8
0
 10
-151.536
 20
-327.177
 11
-161.295
 21
-327.177
  0
LINE
  8
0
 10
-161.295
 20
-327.177
 11
-161.295
 21
-335.722
  0
LINE
  8
0
 10
-161.295
 20
-335.722
 11
-165.5
 21
-335.722
  0
LINE
  8
0
 10
-165.5
 20
-335.722
 11
-165.5
 21
-345.688
  0
LINE
  8
0
 10
-165.5
 20
-345.688
 11
-161.295
 21
-345.688
  0
LINE
  8
0
 10
-161.295
 20
-345.688
 11
-161.295
 21
-355.774
  0
LINE
  8
0
 10
-161.295
 20
-355.774
 11
-165.5
 21
-355.774
  0
LINE
  8
0
 10
-165.5
 20
-355.774
 11
-165.5
 21
-365.739
  0
LINE
  8
0
 10
-165.5
 20
-365.739
 11
-161.295
 21
-365.739
  0
LINE
  8
0
 10
-161.295
 20
-365.739
 11
-161.295
 21
-375.825
  0
LINE
  8
0
 10
-161.295
 20
-375.825
 11
-165.5
 21
-375.825
  0
LINE
  8
0
 10
-165.5
 20
-375.825
 11
-165.5
 21
-385.791
  0
LINE
  8
0
 10
-165.5
 20
-385.791
 11
-161.295
 21
-385.791
  0
LINE
  8
0
 10
-161.295
 20
-385.791
 11
-161.295
 21
-395.876
  0
LINE
  8
0
 10
-161.295
 20
-395.876
 11
-165.5
 21
-395.876
  0
LINE
  8
0
 10
-165.5
 20
-395.876
 11
-165.5
 21
-405.842
  0
LINE
  8
0
 10
-165.5
 20
-405.842
 11
-161.295
 21
-405.842
  0
LINE
  8
0
 10
-161.295
 20
-405.842
 11
-161.295
 21
-415.927
  0
LINE
  8
0
 10
-161.295
 20
-415.927
 11
-165.5
 21
-415.927
  0
LINE
  8
0
 10
-165.5
 20
-415.927
 11
-165.5
 21
-425.893
  0
LINE
  8
0
 10
-165.5
 20
-425.893
 11
-161.295
 21
-425.893
  0
LINE
  8
0
 10
-161.295
 20
-425.893
 11
-161.295
 21
-435.979
  0
LINE
  8
0
 10
-161.295
 20
-435.979
 11
-165.5
 21
-435.979
  0
LINE
  8
0
 10
-165.5
 20
-435.979
 11
-165.5
 21
-445.944
  0
LINE
  8
0
 10
-165.5
 20
-445.944
 11
-161.295
 21
-445.944
  0
LINE
  8
0
 10
-161.295
 20
-445.944
 11
-161.295
 21
-451.795
  0
LINE
  8
0
 10
-161.295
 20
-451.795
 11
-155.44
 21
-451.795
  0
LINE
  8
0
 10
-155.44
 20
-451.795
 11
-155.44
 21
-456
  0
LINE
  8
0
 10
-155.44
 20
-456
 11
-145.469
 21
-456
  0
LINE
  8
0
 10
-145.469
 20
-456
 11
-145.469
 21
-451.795
  0
LINE
  8
0
 10
-145.469
 20
-451.795
 11
-135.379
 21
-451.795
  0
LINE
  8
0
 10
-135.379
 20
-451.795
 11
-135.379
 21
-456
  0
LINE
  8
0
 10
-135.379
 20
-456
 11
-125.409
 21
-456
  0
LINE
  8
0
 10
-125.409
 20
-456
 11
-125.409
 21
-451.795
  0
LINE
  8
0
 10
-125.409
 20
-451.795
 11
-115.318
 21
-451.795
  0
LINE
  8
0
 10
-115.318
 20
-451.795
 11
-115.318
 21
-456
  0
LINE
  8
0
 10
-115.318
 20
-456
 11
-105.348
 21
-456
  0
LINE
  8
0
 10
-105.348
 20
-456
 11
-105.348
 21
-451.795
  0
LINE
  8
0
 10
-105.348
 20
-451.795
 11
-95.2579
 21
-451.795
  0
LINE
  8
0
 10
-95.2579
 20
-451.795
 11
-95.2579
 21
-456
  0
LINE
  8
0
 10
-95.2579
 20
-456
 11
-85.2876
 21
-456
  0
LINE
  8
0
 10
-85.2876
 20
-456
 11
-85.2876
 21
-451.795
  0
LINE
  8
0
 10
-85.2876
 20
-451.795
 11
-83.8
 21
-451.795
  0
LINE
  8
0
 10
-83.8
 20
-451.795
 11
-83.8
 21
-436.582
  0
LINE
  8
0
 10
-83.8
 20
-436.582
 11
-79.49
 21
-436.582
  0
LINE
  8
0
 10
-79.49
 20
-436.582
 11
-79.49
 21
-451.795
  0
LINE
  8
0
 10
-79.49
 20
-451.795
 11
-75.1973
 21
-451.795
  0
LINE
  8
0
 10
-75.1973
 20
-451.795
 11
-75.1973
 21
-456
  0
LINE
  8
0
 10
-75.1973
 20
-456
 11
-65.227
 21
-456
  0
LINE
  8
0
 10
-65.227
 20
-456
 11
-65.227
 21
-451.795
  0
LINE
  8
0
 10
-65.227
 20
-451.795
 11
-55.1367
 21
-451.795
  0
LINE
  8
0
 10
-55.1367
 20
-451.795
 11
-55.1367
 21
-456
  0
LINE
  8
0
 10
-55.1367
 20
-456
 11
-45.1664
 21
-456
  0
LINE
  8
0
 10
-45.1664
 20
-456
 11
-45.1664
 21
-451.795
  0
LINE
  8
0
 10
-45.1664
 20
-451.795
 11
-35.076
 21
-451.795
  0
LINE
  8
0
 10
-35.076
 20
-451.795
 11
-35.076
 21
-456
  0
LINE
  8
0
 10
79.6
 20
-158.741
 11
79.6
 21
-139.292
  0
LINE
  8
0
 10
79.6
 20
-139.292
 11
83.91
 21
-139.292
  0
LINE
  8
0
 10
83.91
 20
-139.292
 11
83.91
 21
-158.741
  0
LINE
  8
0
 10
83.91
 20
-158.741
 11
79.6
 21
-158.741
  0
LINE
  8
0
 10
-83.8
 20
-158.741
 11
-83.8
 21
-139.292
  0
LINE
  8
0
 10
-83.8
 20
-139.292
 11
-79.49
 21
-139.292
  0
LINE
  8
0
 10
-79.49
 20
-139.292
 11
-79.49
 21
-158.741
  0
LINE
  8
0
 10
-79.49
 20
-158.741
 11
-83.8
 21
-158.741
  0
LINE
  8
0
 10
-2.09999
 20
-158.741
 11
-2.09999
 21
-139.292
  0
LINE
  8
0
 10
-2.09999
 20
-139.292
 11
2.20999
 21
-139.292
  0
LINE
  8
0
 10
2.20999
 20
-139.292
 11
2.20999
 21
-158.741
  0
LINE
  8
0
 10
2.20999
 20
-158.741
 11
-2.09999
 21
-158.741
  0
LINE
  8
0
 10
88.1229
 20
-198.243
 11
88.1229
 21
-193.933
  0
LINE
  8
0
 10
88.1229
 20
-193.933
 11
102.117
 21
-193.933
  0
LINE
  8
0
 10
102.117
 20
-193.933
 11
102.117
 21
-198.243
  0
LINE
  8
0
 10
102.117
 20
-198.243
 11
88.1229
 21
-198.243
  0
LINE
  8
0
 10
-102.117
 20
-198.243
 11
-102.117
 21
-193.933
  0
LINE
  8
0
 10
-102.117
 20
-193.933
 11
-88.1229
 21
-193.933
  0
LINE
  8
0
 10
-88.1229
 20
-193.933
 11
-88.1229
 21
-198.243
  0
LINE
  8
0
 10
-88.1229
 20
-198.243
 11
-102.117
 21
-198.243
  0
LINE
  8
0
 10
24.7097
 20
-198.243
 11
24.7097
 21
-193.933
  0
LINE
  8
0
 10
24.7097
 20
-193.933
 11
38.7036
 21
-193.933
  0
LINE
  8
0
 10
38.7036
 20
-193.933
 11
38.7036
 21
-198.243
  0
LINE
  8
0
 10
38.7036
 20
-198.243
 11
24.7097
 21
-198.243
  0
LINE
  8
0
 10
-38.7036
 20
-198.243
 11
-38.7036
 21
-193.933
  0
LINE
  8
0
 10
-38.7036
 20
-193.933
 11
-24.7097
 21
-193.933
  0
LINE
  8
0
 10
-24.7097
 20
-193.933
 11
-24.7097
 21
-198.243
  0
LINE
  8
0
 10
-24.7097
 20
-198.243
 11
-38.7036
 21
-198.243
  0
LINE
  8
0
 10
79.6
 20
-233.063
 11
79.6
 21
-213.615
  0
LINE
  8
0
 10
79.6
 20
-213.615
 11
83.91
 21
-213.615
  0
LINE
  8
0
 10
83.91
 20
-213.615
 11
83.91
 21
-233.063
  0
LINE
  8
0
 10
83.91
 20
-233.063
 11
79.6
 21
-233.063
  0
LINE
  8
0
 10
-83.8
 20
-233.063
 11
-83.8
 21
-213.615
  0
LINE
  8
0
 10
-83.8
 20
-213.615
 11
-79.49
 21
-213.615
  0
LINE
  8
0
 10
-79.49
 20
-213.615
 11
-79.49
 21
-233.063
  0
LINE
  8
0
 10
-79.49
 20
-233.063
 11
-83.8
 21
-233.063
  0
LINE
  8
0
 10
-2.09999
 20
-233.063
 11
-2.09999
 21
-213.615
  0
LINE
  8
0
 10
-2.09999
 20
-213.615
 11
2.20999
 21
-213.615
  0
LINE
  8
0
 10
2.20999
 20
-213.615
 11
2.20999
 21
-233.063
  0
LINE
  8
0
 10
2.20999
 20
-233.063
 11
-2.09999
 21
-233.063
  0
LINE
  8
0
 10
-2.09999
 20
-307.385
 11
-2.09999
 21
-287.937
  0
LINE
  8
0
 10
-2.09999
 20
-287.937
 11
2.20999
 21
-287.937
  0
LINE
  8
0
 10
2.20999
 20
-287.937
 11
2.20999
 21
-307.385
  0
LINE
  8
0
 10
2.20999
 20
-307.385
 11
-2.09999
 21
-307.385
  0
LINE
  8
0
 10
-83.8
 20
-307.385
 11
-83.8
 21
-287.937
  0
LINE
  8
0
 10
-83.8
 20
-287.937
 11
-79.49
 21
-287.937
  0
LINE
  8
0
 10
-79.49
 20
-287.937
 11
-79.49
 21
-307.385
  0
LINE
  8
0
 10
-79.49
 20
-307.385
 11
-83.8
 21
-307.385
  0
LINE
  8
0
 10
79.6
 20
-307.385
 11
79.6
 21
-287.937
  0
LINE
  8
0
 10
79.6
 20
-287.937
 11
83.91
 21
-287.937
  0
LINE
  8
0
 10
83.91
 20
-287.937
 11
83.91
 21
-307.385
  0
LINE
  8
0
 10
83.91
 20
-307.385
 11
79.6
 21
-307.385
  0
LINE
  8
0
 10
24.7097
 20
-327.177
 11
24.7097
 21
-322.867
  0
LINE
  8
0
 10
24.7097
 20
-322.867
 11
38.7036
 21
-322.867
  0
LINE
  8
0
 10
38.7036
 20
-322.867
 11
38.7036
 21
-327.177
  0
LINE
  8
0
 10
38.7036
 20
-327.177
 11
24.7097
 21
-327.177
  0
LINE
  8
0
 10
88.1229
 20
-327.177
 11
88.1229
 21
-322.867
  0
LINE
  8
0
 10
88.1229
 20
-322.867
 11
102.117
 21
-322.867
  0
LINE
  8
0
 10
102.117
 20
-322.867
 11
102.117
 21
-327.177
  0
LINE
  8
0
 10
102.117
 20
-327.177
 11
88.1229
 21
-327.177
  0
LINE
  8
0
 10
-38.7036
 20
-327.177
 11
-38.7036
 21
-322.867
  0
LINE
  8
0
 10
-38.7036
 20
-322.867
 11
-24.7097
 21
-322.867
  0
LINE
  8
0
 10
-24.7097
 20
-322.867
 11
-24.7097
 21
-327.177
  0
LINE
  8
0
 10
-24.7097
 20
-327.177
 11
-38.7036
 21
-327.177
  0
LINE
  8
0
 10
-102.117
 20
-327.177
 11
-102.117
 21
-322.867
  0
LINE
  8
0
 10
-102.117
 20
-322.867
 11
-88.1229
 21
-322.867
  0
LINE
  8
0
 10
-88.1229
 20
-322.867
 11
-88.1229
 21
-327.177
  0
LINE
  8
0
 10
-88.1229
 20
-327.177
 11
-102.117
 21
-327.177
  0
LINE
  8
0
 10
-2.09999
 20
-381.708
 11
-2.09999
 21
-362.259
  0
LINE
  8
0
 10
-2.09999
 20
-362.259
 11
2.20999
 21
-362.259
  0
LINE
  8
0
 10
2.20999
 20
-362.259
 11
2.20999
 21
-381.708
  0
LINE
  8
0
 10
2.20999
 20
-381.708
 11
-2.09999
 21
-381.708
  0
LINE
  8
0
 10
79.6
 20
-381.708
 11
79.6
 21
-362.259
  0
LINE
  8
0
 10
79.6
 20
-362.259
 11
83.91
 21
-362.259
  0
LINE
  8
0
 10
83.91
 20
-362.259
 11
83.91
 21
-381.708
  0
LINE
  8
0
 10
83.91
 20
-381.708
 11
79.6
 21
-381.708
  0
LINE
  8
0
 10
-83.8
 20
-381.708
 11
-83.8
 21
-362.259
  0
LINE
  8
0
 10
-83.8
 20
-362.259
 11
-79.49
 21
-362.259
  0
LINE
  8
0
 10
-79.49
 20
-362.259
 11
-79.49
 21
-381.708
  0
LINE
  8
0
 10
-79.49
 20
-381.708
 11
-83.8
 21
-381.708
  0
ENDSEC
  0
SECTION
  2
OBJECTS
  0
DICTIONARY
  0
ENDSEC
  0
EOF
